<?xml version="1.0" encoding="utf-8"?>
<!-- Generator: Adobe Illustrator 16.0.0, SVG Export Plug-In . SVG Version: 6.00 Build 0)  -->
<!DOCTYPE svg PUBLIC "-//W3C//DTD SVG 1.1//EN" "http://www.w3.org/Graphics/SVG/1.1/DTD/svg11.dtd">
<svg version="1.1" id="Layer_1" xmlns="http://www.w3.org/2000/svg" xmlns:xlink="http://www.w3.org/1999/xlink" x="0px" y="0px"
	 width="282px" height="12036.176px" viewBox="0 -3536 282 12036.176" enable-background="new 0 -3536 282 12036.176"
	 xml:space="preserve">
<g id="Layer_4">
</g>
<g id="egg">
</g>
<g id="Layer_1_1_">
</g>
<g id="Layer_3">
	<path fill="none" d="M269.531-2703.435c-8.416,5.932-20.985,20.119-19.197,30.908c1.54,9.282,0.822,25.249,30.454,70.351v-111.048
		C277.713-2709.877,274.014-2706.595,269.531-2703.435z"/>
	<path fill="none" d="M248.733-3500.09c13.989,15.26,18.331,23.557,32.055,35.162v-71.911h-98.346
		c0.543,0.199,1.084,0.396,1.627,0.596C230.913-3518.931,231.933-3518.421,248.733-3500.09z"/>
	<path fill="none" d="M280.788-3453.63v-5.167c-32.348-20.999-61.854-36.562-92.247-52.583
		c-15.358-8.094-30.985-16.338-47.269-25.459h-8.792c18.75,10.669,36.57,20.069,54.046,29.279
		C217.547-3491.209,247.642-3475.332,280.788-3453.63z"/>
	<path fill="#3B3E98" d="M80.353-2834.272c0.646,9.412,2.957,29.962,11.202,61.508c11.714,44.806,22.405,64.155,49.392,94.704
		c26.983,30.551,36.998,23.983,54.036,41.186c12.986,13.11,37.924,42.189,63.486,65.459c7.438,6.771,14.544,13.494,22.318,20.696
		v-4.634C213.31-2617.54,148.301-2687.06,80.353-2834.272z"/>
	<path fill="#3B3E98" d="M217.132-2632.23c-32.39-39.059-18.343-60.578-19.667-68.355c-3.722-21.863-22.659-40.355-46.079-66.324
		c-19.248-21.341-54.984-57.104-67.113-69.178c66.613,144.316,130.41,213.631,196.517,274.852v-5.025
		C243.179-2601.465,227.423-2619.818,217.132-2632.23z"/>
	<path opacity="0.2" fill="#F67D7D" enable-background="new    " d="M249.345-2712.191c-5.27,16.614-15.332,48.448,31.443,117.839
		v-7.824c-29.632-45.102-28.914-61.068-30.454-70.351c-1.788-10.789,10.781-24.977,19.197-30.908
		c4.481-3.16,8.182-6.442,11.257-9.789v-121.916c-4.171-10.935-8.348-19.371-11.201-24.645
		C273.827-2804.03,265.196-2762.178,249.345-2712.191z"/>
	<path opacity="0.2" fill="#F67D7D" enable-background="new    " d="M245.226-2713.496c15.763-49.697,24.307-91.259,19.986-146.743
		c-4.079,22.294-23.258,60.946-34.547,99.787c-12.347,42.486-0.897,51.007,7.506,94.077c3.879,19.873,14.835,49.18,42.617,86.62
		v-6.961C228.755-2661.497,239.616-2695.808,245.226-2713.496z"/>
	<path opacity="0.2" fill="#F67D7D" enable-background="new    " d="M128.864-2547.872c24.647,12.172,45.046,14.288,64.939,16.348
		c27.431,2.836,53.552,5.575,86.983,34.41v-4.858c-12.286-10.26-30.623-22.925-53.286-30.644
		C194.612-2543.817,178.876-2538.16,128.864-2547.872z"/>
	<path opacity="0.2" fill="#F67D7D" enable-background="new    " d="M125.664-2544.624c6.217,8.44,22.202,26.679,49.957,36.322
		c36.89,12.813,44.426-11.252,61.868-5.426c19.586,6.546,32.31,18.017,43.299,28.276v-5.904
		c-33.852-30.299-59.968-33.033-87.428-35.874C172.69-2529.364,151.487-2531.563,125.664-2544.624z"/>
	<path fill="#F67D7D" d="M115.341-3005.8c-38.287,6.939-77.156,21.162-100.172,23.797c24.569,4.078,56.325,1.584,85.586-0.722
		c7.121-0.562,14.104-1.113,20.811-1.554c7.504-0.496,14.636-1.508,22.188-2.578c33.854-4.799,68.726-9.725,137.034,30.68v-4.599
		c-18.865-10.976-44.47-23.508-72.903-30.894C161.328-3003.762,158.874-3013.691,115.341-3005.8z"/>
	<path fill="#F67D7D" d="M144.362-2982.579c-7.303,1.035-14.849,2.105-22.515,2.611c-6.688,0.441-13.649,0.989-20.754,1.551
		c-30.157,2.376-62.912,4.951-88.353,0.346c18.496,10.338,75.837,39.418,124.747,32.606c0,0,27.954,1.968,44.297-24.948
		c4.518-7.441,12.2-14.131,40.481-3.939c26.479,9.541,40.094,16.797,57.407,27.49c0.378,0.233,0.744,0.46,1.112,0.688v-4.952
		C212.292-2992.164,177.81-2987.321,144.362-2982.579z"/>
	<path opacity="0.2" fill="#3B3E98" enable-background="new    " d="M166.732-3151.439c-16.803-18.33-17.82-18.839-64.664-36.152
		c-35.119-12.979-70.099-22.095-85.405-25.844c32.504,20.456,61.635,35.823,89.877,50.707
		c53.927,28.426,105.062,55.41,174.248,113.913v-4.82c-26.911-22.566-49.48-38.385-72.433-55.155
		C186.407-3124.829,183.537-3133.109,166.732-3151.439z"/>
	<path opacity="0.2" fill="#3B3E98" enable-background="new    " d="M11.928-3211.312c24.912,30.218,50.332,49.567,79.893,73.686
		c62.247,50.79,66.951,10.391,108.646,38.761c35.538,24.181,48.943,33.961,80.323,60.681v-4.974
		c-70.268-59.86-121.828-87.059-176.263-115.751C75.507-3174.203,45.553-3189.994,11.928-3211.312z"/>
	<path opacity="0.2" fill="#3B3E98" enable-background="new    " d="M57.853-3372.772c0.646,9.412,2.957,29.962,11.202,61.508
		c11.714,44.806,22.405,64.154,49.392,94.704c26.983,30.551,36.998,23.983,54.036,41.185c12.986,13.11,37.924,42.19,63.486,65.458
		c13.917,12.667,26.668,25.169,44.818,40.953v-4.418C205.163-3141.605,133.32-3209.27,57.853-3372.772z"/>
	<path opacity="0.2" fill="#3B3E98" enable-background="new    " d="M194.632-3170.73c-32.39-39.058-18.343-60.577-19.667-68.355
		c-3.722-21.862-22.659-40.355-46.079-66.324c-19.248-21.341-54.984-57.104-67.113-69.178
		c74.14,160.62,144.79,228.337,219.017,295.388v-4.875C226.517-3133.176,206.773-3156.087,194.632-3170.73z"/>
	<path fill="#F67D7D" d="M238.396-3247.741c23.462-20.479,21.854-42.265,20.11-57.791c-5.406-48.199-26.952-84.182-36.21-97.729
		c9.979,55.018,5.718,97.538-4.885,148.896c-3.91,18.943-11.757,57.131,63.375,136.226v-6.096
		c-54.589-60.061-55.373-80.146-58.292-90.781C219.603-3225.562,230.639-3240.971,238.396-3247.741z"/>
	<path fill="#F67D7D" d="M213.181-3255.238c10.544-51.059,14.747-93.281,4.72-148.022c-1.755,22.596-16.837,63.023-24.053,102.823
		c-7.892,43.534,4.376,50.827,17.187,92.798c6.958,22.792,24.999,57.561,69.755,100.573v-4.831
		C200.755-3194.855,209.069-3235.312,213.181-3255.238z"/>
	<path opacity="0.2" fill="#3B3E98" enable-background="new    " d="M128.864-3063.872c24.647,12.172,45.046,14.288,64.939,16.347
		c27.431,2.836,53.552,5.577,86.983,34.411v-4.859c-12.286-10.26-30.623-22.925-53.286-30.643
		C194.612-3059.817,178.876-3054.16,128.864-3063.872z"/>
	<path opacity="0.2" fill="#3B3E98" enable-background="new    " d="M125.664-3060.624c6.217,8.44,22.202,26.679,49.957,36.322
		c36.89,12.814,44.426-11.252,61.868-5.426c19.586,6.546,32.31,18.016,43.299,28.278v-5.906
		c-33.852-30.298-59.968-33.033-87.428-35.874C172.69-3045.364,151.487-3047.564,125.664-3060.624z"/>
	<path fill="#3B3E98" d="M198.83-3465.742c-7.368-1.979-14.325-3.848-21.421-6.336c-6.342-2.227-12.98-4.459-19.751-6.737
		c-27.818-9.361-58.006-19.528-79.004-32.92c22.203,6.608,63.536,8.778,101.476,17.419c43.139,9.825,41.498,19.92,79.576,49.312
		c13.211,10.198,24.928,21.565,34.979,32.691l-1.646,3.859C255.942-3450.392,227.028-3458.167,198.83-3465.742z"/>
	<path fill="#3B3E98" d="M227.359-3435.693c-25.593,18.345-50.534,5.565-50.534,5.565c-47.66-12.927-88.99-62.176-101.946-78.942
		c21.593,14.219,52.731,24.704,81.401,34.352c6.755,2.271,13.372,4.499,19.697,6.717c7.25,2.543,14.61,4.52,21.732,6.433
		c27.867,7.486,56.458,15.206,93.429,57.564l-1.771,4.155c-6.218-7.093-13.506-14.542-23.228-23.582
		C244.126-3443.903,234.435-3440.765,227.359-3435.693z"/>
	<path fill="none" d="M258.226-1638.375c5.729-0.051,13.123-0.121,22.22-2.327l-9.297,15.738
		c-14.009,8.809-26.234,14.127-53.037,15.01c-40.425,1.331-83.123-4.896-105.582-1.852
		C163.929-1633.141,206.09-1637.927,258.226-1638.375z"/>
	<path fill="none" d="M260.396-2213.239c-7.759,6.771-18.794,22.181-15.9,32.728c2.459,8.96,3.407,24.632,36.292,65.266v-133.538
		C279.193-2237.483,274.033-2225.142,260.396-2213.239z"/>
	<path fill="none" d="M280.788-2444.776v-34.062h-84.354c3.509,1.032,7.302,2.092,11.45,3.17
		C236.318-2468.283,261.923-2455.751,280.788-2444.776z"/>
	<path fill="#F67D7D" d="M237.382-1889.095c-51.004-12.188-91.315-26.367-136.904-58.744c8.341,14.131,31.783,48.906,73.138,74.25
		c13.317,8.166,32.364,18.863,60.862,6.307c9.423-4.153,28.06-7.608,36.382-0.516c2.022,1.725,4.596,3.57,7.771,6.426h2.158v-3.646
		C262.67-1883.039,247.347-1886.714,237.382-1889.095z"/>
	<path fill="#F67D7D" d="M205.659-1929.979c-39.103-10.353-82.109-13.845-103.316-21.843c45.316,32.306,85.334,46.41,136.045,58.523
		c9.867,2.359,24.804,5.946,42.4,22.286v-5.506C249.772-1904.93,247.711-1918.848,205.659-1929.979z"/>
	<path opacity="0.2" fill="#F67D7D" enable-background="new    " d="M100.755-2466.725c7.121-0.562,14.104-1.113,20.811-1.555
		c7.504-0.495,14.636-1.508,22.188-2.577c33.854-4.801,68.726-9.726,137.034,30.68v-4.599
		c-18.865-10.977-44.47-23.509-72.903-30.895c-4.148-1.078-7.941-2.138-11.45-3.17H68.894
		c-21.162,5.728-40.188,11.286-53.725,12.836C39.738-2461.925,71.494-2464.419,100.755-2466.725z"/>
	<path opacity="0.2" fill="#F67D7D" enable-background="new    " d="M144.362-2466.579c-7.303,1.035-14.849,2.105-22.515,2.611
		c-6.688,0.441-13.649,0.989-20.754,1.551c-30.157,2.376-62.912,4.951-88.353,0.346c18.496,10.339,75.837,39.418,124.747,32.606
		c0,0,27.954,1.968,44.297-24.948c4.518-7.44,12.2-14.131,40.481-3.938c26.479,9.541,40.094,16.797,57.407,27.489
		c0.378,0.233,0.744,0.46,1.112,0.688v-4.953C212.292-2476.164,177.81-2471.32,144.362-2466.579z"/>
	<path opacity="0.2" fill="#3B3E98" enable-background="new    " d="M134.129-2339.772
		c-28.817,43.812-55.872,76.891-101.831,108.737c16.125-3.033,56.804-13.242,94.709-43.5c12.212-9.746,28.753-24.014,26.643-55.084
		c-0.697-10.272,2.395-28.973,11.897-34.385c9.959-5.671,25.498-20.187,115.241-23.383v-4.018
		C166.931-2389.572,144.935-2356.202,134.129-2339.772z"/>
	<path opacity="0.2" fill="#3B3E98" enable-background="new    " d="M162.658-2377.325c-38.736,20.621-52.567,17.104-77.771,53.467
		c-23.04,33.244-40.962,72.496-55.698,89.716c45.799-31.617,72.683-64.445,101.331-108.007
		c11.219-17.049,34.057-51.702,150.27-53.568v-3.437C220.11-2400.051,183.433-2388.381,162.658-2377.325z"/>
	<path opacity="0.2" fill="#3B3E98" enable-background="new    " d="M244.298-2368.759c9.979,55.019,5.719,97.538-4.885,148.896
		c-3.479,16.849-10.078,48.921,41.375,111.464v-6.849c-32.885-40.634-33.833-56.306-36.292-65.266
		c-2.894-10.547,8.143-25.957,15.9-32.728c13.637-11.901,18.797-24.244,20.392-35.545v-19.639c-0.091-0.886-0.186-1.758-0.28-2.607
		C275.101-2319.229,253.556-2355.212,244.298-2368.759z"/>
	<path opacity="0.2" fill="#3B3E98" enable-background="new    " d="M235.181-2220.735c10.544-51.061,14.747-93.281,4.72-148.022
		c-1.755,22.597-16.837,63.023-24.053,102.823c-7.892,43.534,4.376,50.827,17.187,92.798c5.683,18.615,18.771,45.226,47.755,77.786
		v-6.318C224.413-2168.46,231.491-2202.86,235.181-2220.735z"/>
	<path fill="#F67D7D" d="M179.732-2077.36c4.484,46.094,11.984,66.888,33.804,101.316c21.818,34.432,32.744,29.528,46.852,49.207
		c5.03,7.019,12.101,17.909,20.4,30.273v-7.052c-37.338-57.367-72.107-128.38-102.399-236.254
		C177.54-2130.472,176.575-2109.815,179.732-2077.36z"/>
	<path fill="#F67D7D" d="M272.905-1989.356c-0.221-22.177-15.998-43.43-35.021-72.771c-15.635-24.114-45.271-65.075-55.341-78.913
		c29.148,103.798,62.47,173.313,98.243,229.426v-8.402C256.055-1962.804,272.982-1981.544,272.905-1989.356z"/>
	<path opacity="0.2" fill="#3B3E98" enable-background="new    " d="M161.523-1788.274
		c-28.819,43.812-55.873,76.891-101.832,108.737c16.125-3.032,56.805-13.241,94.709-43.5c12.212-9.746,28.753-24.014,26.644-55.084
		c-0.698-10.272,2.393-28.973,11.896-34.384c8.847-5.037,22.102-17.053,87.848-21.915v-4.344
		C190.623-1832.458,171.398-1803.29,161.523-1788.274z"/>
	<path opacity="0.2" fill="#3B3E98" enable-background="new    " d="M112.28-1772.36c-23.04,33.244-40.962,72.495-55.699,89.716
		c45.8-31.618,72.683-64.446,101.331-108.007c10.274-15.613,30.299-45.996,122.876-52.433v-4.095
		c-44.652,2.349-73.295,12.068-90.735,21.351C151.316-1805.206,137.485-1808.724,112.28-1772.36z"/>
	<path opacity="0.2" fill="#3B3E98" enable-background="new    " d="M236.444-1772.352c-19.692,28.626-18.51,45.306-41.406,90.816
		c18.395-20.43,25.956-39.49,33.327-58.085c9.755-24.611,19.113-48.088,52.423-71.489v-4.118l-0.413-0.116
		C267.171-1806.297,250.012-1792.076,236.444-1772.352z"/>
	<path opacity="0.2" fill="#3B3E98" enable-background="new    " d="M232.38-1738.026c-7.652,19.318-15.514,39.134-35.082,60.452
		c9.81-3.696,31.695-14.145,48.497-38.249c22.329-32.04,1.203-45.812,11.536-61.024c7.088-10.429,15.249-17.891,23.457-23.9v-5.034
		C250.488-1783.619,241.624-1761.346,232.38-1738.026z"/>
	<path fill="#3B3E98" d="M260.302-1582.901c-30.91-3.784-46.053,11.961-56.443,23.627c-32.265,36.213-44.658,76.28-48.559,92.219
		c34.286-44.17,68.779-69.396,114.086-95.803c3.26-1.899,7.164-4.181,11.402-7.423v-14.044
		C273.689-1582.513,265.765-1582.23,260.302-1582.901z"/>
	<path fill="#3B3E98" d="M158.235-1463.782c17.992-13.783,58.152-29.558,92.596-50.766c15.025-9.254,23.616-17.045,29.957-25.45
		v-24.91c-3.392,2.38-6.521,4.208-9.225,5.783C226.517-1532.874,192.283-1507.805,158.235-1463.782z"/>
	<path opacity="0.2" fill="#F67D7D" enable-background="new    " d="M199.51-1672.09c-45.978,15.438-76.613,44.081-87.905,55.984
		c51.681-21.345,94.143-26.139,146.582-26.593c5.763-0.05,13.275-0.127,22.603-2.581v-9.89c-7.729-1.744-15.709-5.825-20.549-9.438
		C235.278-1683.227,214.32-1677.065,199.51-1672.09z"/>
	<path opacity="0.2" fill="#F67D7D" enable-background="new    " d="M218.11-1609.954c26.803-0.883,39.029-6.201,53.037-15.01
		l9.297-15.738c-9.098,2.206-16.491,2.276-22.221,2.327c-52.135,0.448-94.296,5.234-145.695,26.569
		C134.987-1614.851,177.685-1608.623,218.11-1609.954z"/>
	<path opacity="0.2" fill="#F67D7D" enable-background="new    " d="M22.245-1334.244c15.215-4.11,49.967-14.055,84.771-27.862
		c46.418-18.418,47.424-18.95,63.786-37.676c16.363-18.723,19.037-27.067,40.601-43.624c22.057-16.934,43.767-32.944,69.386-55.35
		v-4.905c-66.975,59.155-117.077,87.13-169.894,116.592C83.014-1371.519,54.256-1355.466,22.245-1334.244z"/>
	<path opacity="0.2" fill="#F67D7D" enable-background="new    " d="M95.583-1411.814c-28.979,24.812-53.934,44.76-78.122,75.56
		c33.111-22.11,62.683-38.605,91.327-54.584c53.355-29.761,103.921-57.998,172-118.598v-5.068
		c-29.779,26.554-43.071,36.716-77.511,61.364C162.269-1423.79,156.606-1464.067,95.583-1411.814z"/>
	<path fill="#3B3E98" d="M172.241-1377.676c-16.891,17.349-26.959,10.869-53.677,41.651c-26.722,30.782-37.245,50.225-48.568,95.127
		c-7.97,31.619-10.103,52.188-10.667,61.605c74.416-164.977,146.014-233.122,221.459-302.354v-4.411
		c-18.634,16.428-31.531,29.311-45.632,42.37C209.796-1420.194,185.113-1390.899,172.241-1377.676z"/>
	<path fill="#3B3E98" d="M63.265-1177.51c12.021-12.181,47.447-48.249,66.509-69.76c23.194-26.169,41.973-44.826,45.502-66.722
		c1.258-7.789-12.977-29.185,19.073-68.521c12.092-14.843,31.811-38.128,86.439-88.357v-4.913
		C206.75-1407.762,136.36-1339.558,63.265-1177.51z"/>
	<path opacity="0.2" fill="#F67D7D" enable-background="new    " d="M225.206-1259.605c-0.932-6.657-1.811-13.604-2.705-20.691
		c-3.685-29.119-7.691-60.721-16.674-83.949c2.094,23.071-3.938,64.02-2.959,102.917c1.114,44.229,11.335,44.615,32.63,87.746
		c13.006,26.342,30.479,48.868,45.056,65.111l0.234-0.049v-5.649c-49.283-55.837-51.484-89.995-53.602-123.185
		C226.701-1244.968,226.243-1252.156,225.206-1259.605z"/>
	<path opacity="0.2" fill="#F67D7D" enable-background="new    " d="M251.011-1203.454c23.037-21.467,15.435-48.439,15.435-48.439
		c-3.263-49.274-43.381-99.516-57.261-115.526c9.676,23.976,13.807,56.57,17.604,86.582c0.893,7.069,1.771,13.997,2.697,20.636
		c1.061,7.609,1.544,15.217,2.014,22.576c2.021,31.686,4.144,64.282,49.289,116.846v-6.228
		c-8.078-9.603-15.687-20.155-25.413-36.006C239.653-1188.639,244.642-1197.52,251.011-1203.454z"/>
	<path fill="#F67D7D" d="M176.8-1116.344c-39.874-8.458-61.979-8.243-106.749,3.608c-31.519,8.349-50.546,16.447-59.059,20.518
		c118.81-9.773,200.271-0.261,269.796,16.644v-3.954c-16.986-4.154-32.067-7.459-41.544-10.043
		C215.885-1095.938,216.673-1107.888,176.8-1116.344z"/>
	<path fill="#F67D7D" d="M11.341-1087.912c16.48,4.617,65.198,18.128,93.249,24.381c34.132,7.608,59.55,14.993,80.413,7.475
		c7.424-2.675,19.243-25.493,69.186-16.52c6.898,1.24,15.285,2.826,26.601,5.489v-4.029
		C211.375-1088.083,130.095-1097.681,11.341-1087.912z"/>
	<path opacity="0.2" fill="#3B3E98" enable-background="new    " d="M129.421-975.846c-30.887,42.38-59.495,74.123-106.929,103.729
		c16.252-2.255,57.373-10.502,96.687-38.907c12.664-9.149,29.871-22.606,29.253-53.743c-0.204-10.294,3.779-28.824,13.532-33.774
		c10.317-5.235,26.758-19.201,118.824-17.792v-3.973C164.89-1024.476,141.083-991.85,129.421-975.846z"/>
	<path opacity="0.2" fill="#3B3E98" enable-background="new    " d="M159.718-1011.987c-39.681,18.74-53.326,14.563-80.246,49.677
		c-24.606,32.101-44.391,70.448-59.938,86.939c47.262-29.385,75.689-60.886,106.395-103.021
		c12.1-16.599,36.789-50.441,154.859-46.234v-3.371C219.019-1032.157,181.234-1022.146,159.718-1011.987z"/>
	<path fill="none" d="M273.531-179.435c-8.416,5.932-20.985,20.119-19.197,30.908c1.54,9.281,0.822,25.248,30.454,70.351v-111.048
		C281.713-185.877,278.014-182.595,273.531-179.435z"/>
	<path fill="none" d="M252.733-976.091c13.989,15.26,18.331,23.558,32.055,35.162v-71.91h-98.346
		c0.543,0.199,1.084,0.396,1.627,0.596C234.913-994.931,235.933-994.421,252.733-976.091z"/>
	<path fill="none" d="M284.788-929.63v-5.166c-32.348-20.999-61.854-36.562-92.247-52.584
		c-15.358-8.094-30.985-16.338-47.269-25.459h-8.792c18.75,10.669,36.57,20.068,54.046,29.279
		C221.547-967.209,251.642-951.331,284.788-929.63z"/>
	<path fill="#3B3E98" d="M84.353-310.272c0.646,9.412,2.957,29.963,11.202,61.51c11.714,44.806,22.405,64.154,49.392,94.703
		c26.983,30.551,36.998,23.982,54.036,41.186c12.986,13.11,37.924,42.189,63.486,65.459c7.438,6.771,14.544,13.494,22.318,20.696
		v-4.634C217.31-93.54,152.301-163.06,84.353-310.272z"/>
	<path fill="#3B3E98" d="M221.132-108.229c-32.39-39.06-18.343-60.578-19.667-68.355c-3.722-21.863-22.659-40.355-46.079-66.324
		c-19.248-21.342-54.984-57.104-67.113-69.178c66.613,144.314,130.41,213.631,196.517,274.852v-5.024
		C247.179-77.465,231.423-95.817,221.132-108.229z"/>
	<path fill="#3B3E98" d="M253.345-188.19c-5.27,16.613-15.332,48.447,31.443,117.839v-7.824
		c-29.632-45.103-28.914-61.068-30.454-70.351c-1.788-10.789,10.781-24.978,19.197-30.908c4.481-3.16,8.182-6.442,11.257-9.789
		V-311.14c-4.171-10.937-8.348-19.371-11.201-24.646C277.827-280.03,269.196-238.179,253.345-188.19z"/>
	<path fill="#3B3E98" d="M249.226-189.496c15.763-49.696,24.307-91.259,19.986-146.743c-4.079,22.295-23.258,60.946-34.547,99.787
		c-12.347,42.486-0.897,51.009,7.506,94.077c3.879,19.873,14.835,49.181,42.617,86.62v-6.961
		C232.755-137.497,243.616-171.808,249.226-189.496z"/>
	<path fill="#3B3E98" d="M132.864-23.872C157.512-11.7,177.91-9.584,197.804-7.524c27.431,2.836,53.552,5.575,86.983,34.41v-4.858
		c-12.286-10.261-30.623-22.925-53.286-30.644C198.612-19.817,182.876-14.16,132.864-23.872z"/>
	<path fill="#3B3E98" d="M129.664-20.624c6.217,8.44,22.202,26.68,49.957,36.322c36.89,12.814,44.426-11.252,61.868-5.426
		c19.586,6.546,32.31,18.017,43.299,28.277v-5.905C250.937,2.347,224.82-0.389,197.36-3.229
		C176.69-5.364,155.487-7.563,129.664-20.624z"/>
	<path opacity="0.2" fill="#3B3E98" enable-background="new    " d="M119.341-481.8c-38.287,6.939-77.156,21.162-100.172,23.797
		c24.569,4.078,56.325,1.584,85.586-0.722c7.121-0.562,14.104-1.113,20.811-1.554c7.504-0.496,14.636-1.508,22.188-2.578
		c33.854-4.799,68.726-9.725,137.034,30.68v-4.598c-18.865-10.977-44.47-23.509-72.903-30.895
		C165.328-479.762,162.874-489.69,119.341-481.8z"/>
	<path opacity="0.2" fill="#3B3E98" enable-background="new    " d="M148.362-458.579c-7.303,1.035-14.849,2.105-22.515,2.611
		c-6.688,0.441-13.649,0.989-20.754,1.551c-30.157,2.376-62.912,4.951-88.353,0.346c18.496,10.338,75.837,39.418,124.747,32.606
		c0,0,27.954,1.968,44.297-24.948c4.518-7.44,12.2-14.131,40.481-3.938c26.479,9.541,40.094,16.797,57.407,27.489
		c0.378,0.233,0.744,0.461,1.112,0.688v-4.951C216.292-468.164,181.81-463.321,148.362-458.579z"/>
	<path fill="#F67D7D" d="M170.732-627.438c-16.803-18.33-17.82-18.841-64.664-36.152c-35.119-12.979-70.099-22.096-85.405-25.844
		c32.504,20.455,61.635,35.821,89.877,50.707c53.927,28.426,105.062,55.409,174.248,113.912v-4.819
		c-26.911-22.565-49.48-38.386-72.433-55.155C190.407-600.829,187.537-609.108,170.732-627.438z"/>
	<path fill="#F67D7D" d="M15.928-687.312c24.912,30.219,50.332,49.565,79.893,73.686c62.247,50.79,66.951,10.392,108.646,38.762
		c35.538,24.181,48.943,33.961,80.323,60.682v-4.975c-70.268-59.859-121.828-87.059-176.263-115.751
		C79.507-650.202,49.553-665.993,15.928-687.312z"/>
	<path opacity="0.2" fill="#3B3E98" enable-background="new    " d="M61.853-848.772c0.646,9.412,2.957,29.963,11.202,61.51
		c11.714,44.806,22.405,64.154,49.392,94.703c26.983,30.551,36.998,23.982,54.036,41.186c12.986,13.11,37.924,42.189,63.486,65.459
		c13.917,12.666,26.668,25.169,44.818,40.953v-4.418C209.163-617.604,137.32-685.27,61.853-848.772z"/>
	<path opacity="0.2" fill="#3B3E98" enable-background="new    " d="M198.632-646.729c-32.39-39.06-18.343-60.578-19.667-68.355
		c-3.722-21.863-22.659-40.355-46.079-66.324c-19.248-21.342-54.984-57.104-67.113-69.178
		c74.14,160.619,144.79,228.336,219.017,295.387v-4.875C230.517-609.176,210.773-632.087,198.632-646.729z"/>
	<path fill="#F67D7D" d="M242.396-782.739c23.462-20.479,21.854-42.265,20.11-57.791c-5.406-48.197-26.952-84.182-36.21-97.729
		c9.979,55.02,5.718,97.538-4.885,148.896c-3.91,18.941-11.757,57.131,63.375,136.226v-6.096
		c-54.589-60.062-55.373-80.146-58.292-90.78C223.603-760.56,234.639-775.97,242.396-782.739z"/>
	<path fill="#F67D7D" d="M217.181-790.235c10.544-51.061,14.747-93.281,4.72-148.022c-1.755,22.597-16.837,63.022-24.053,102.823
		c-7.892,43.533,4.376,50.826,17.187,92.798c6.958,22.792,24.999,57.562,69.755,100.574v-4.832
		C204.755-729.853,213.069-770.31,217.181-790.235z"/>
	<path opacity="0.2" fill="#3B3E98" enable-background="new    " d="M132.864-539.872c24.647,12.172,45.046,14.288,64.939,16.348
		c27.431,2.836,53.552,5.576,86.983,34.41v-4.858c-12.286-10.261-30.623-22.925-53.286-30.644
		C198.612-535.817,182.876-530.16,132.864-539.872z"/>
	<path opacity="0.2" fill="#3B3E98" enable-background="new    " d="M129.664-536.624c6.217,8.44,22.202,26.68,49.957,36.322
		c36.89,12.814,44.426-11.252,61.868-5.426c19.586,6.546,32.31,18.016,43.299,28.277v-5.905
		c-33.852-30.298-59.968-33.033-87.428-35.874C176.69-521.364,155.487-523.563,129.664-536.624z"/>
	<path fill="none" d="M262.226,885.625c5.729-0.051,13.123-0.121,22.22-2.327l-9.297,15.738
		c-14.009,8.81-26.234,14.127-53.037,15.01c-40.425,1.332-83.123-4.896-105.582-1.852
		C167.929,890.859,210.09,886.073,262.226,885.625z"/>
	<path fill="none" d="M264.396,310.761c-7.759,6.771-18.794,22.181-15.9,32.728c2.459,8.96,3.407,24.632,36.292,65.267V275.218
		C283.193,286.517,278.033,298.858,264.396,310.761z"/>
	<path fill="none" d="M284.788,79.224V45.161h-84.354c3.509,1.032,7.302,2.092,11.45,3.17
		C240.318,55.717,265.923,68.249,284.788,79.224z"/>
	<path fill="#F67D7D" d="M241.382,634.905c-51.004-12.188-91.315-26.367-136.904-58.744c8.341,14.131,31.783,48.906,73.138,74.25
		c13.317,8.166,32.364,18.863,60.862,6.307c9.423-4.154,28.06-7.608,36.382-0.516c2.022,1.725,4.596,3.57,7.771,6.426h2.158v-3.646
		C266.67,640.961,251.347,637.286,241.382,634.905z"/>
	<path fill="#F67D7D" d="M209.659,594.021c-39.103-10.353-82.109-13.845-103.316-21.843c45.316,32.306,85.334,46.41,136.045,58.523
		c9.867,2.358,24.804,5.946,42.4,22.286v-5.507C253.772,619.07,251.711,605.152,209.659,594.021z"/>
	<path opacity="0.2" fill="#F67D7D" enable-background="new    " d="M104.755,57.275c7.121-0.562,14.104-1.113,20.811-1.554
		c7.504-0.496,14.636-1.509,22.188-2.578c33.854-4.801,68.726-9.726,137.034,30.68v-4.6c-18.865-10.976-44.47-23.508-72.903-30.894
		c-4.148-1.078-7.941-2.138-11.45-3.17H72.894c-21.162,5.728-40.188,11.286-53.725,12.836
		C43.738,62.075,75.494,59.581,104.755,57.275z"/>
	<path opacity="0.2" fill="#F67D7D" enable-background="new    " d="M148.362,57.421c-7.303,1.035-14.849,2.105-22.515,2.611
		c-6.688,0.441-13.649,0.989-20.754,1.551c-30.157,2.376-62.912,4.951-88.353,0.346c18.496,10.338,75.837,39.418,124.747,32.606
		c0,0,27.954,1.968,44.297-24.948c4.518-7.44,12.2-14.131,40.481-3.938c26.479,9.541,40.094,16.797,57.407,27.489
		c0.378,0.233,0.744,0.461,1.112,0.688v-4.953C216.292,47.836,181.81,52.681,148.362,57.421z"/>
	<path opacity="0.2" fill="#F67D7D" enable-background="new    " d="M138.129,184.228c-28.817,43.812-55.872,76.891-101.831,108.737
		c16.125-3.032,56.804-13.241,94.709-43.5c12.212-9.746,28.753-24.014,26.643-55.084c-0.697-10.272,2.395-28.973,11.897-34.385
		c9.959-5.671,25.498-20.187,115.241-23.383v-4.018C170.931,134.429,148.935,167.798,138.129,184.228z"/>
	<path opacity="0.2" fill="#F67D7D" enable-background="new    " d="M166.658,146.675c-38.736,20.621-52.567,17.104-77.771,53.467
		c-23.04,33.244-40.962,72.496-55.698,89.716c45.799-31.617,72.683-64.445,101.331-108.007
		c11.219-17.049,34.057-51.702,150.27-53.568v-3.437C224.11,123.949,187.433,135.619,166.658,146.675z"/>
	<path fill="#F67D7D" d="M248.298,155.241c9.979,55.02,5.719,97.538-4.885,148.896c-3.479,16.848-10.078,48.92,41.375,111.463
		v-6.849c-32.885-40.634-33.833-56.306-36.292-65.266c-2.894-10.548,8.143-25.957,15.9-32.728
		c13.637-11.902,18.797-24.244,20.392-35.545v-19.639c-0.091-0.886-0.186-1.758-0.28-2.607
		C279.101,204.771,257.556,168.788,248.298,155.241z"/>
	<path fill="#F67D7D" d="M239.181,303.265c10.544-51.061,14.747-93.281,4.72-148.022c-1.755,22.597-16.837,63.022-24.053,102.823
		c-7.892,43.533,4.376,50.826,17.187,92.798c5.683,18.615,18.771,45.226,47.755,77.786v-6.318
		C228.413,355.54,235.491,321.14,239.181,303.265z"/>
	<path opacity="0.2" fill="#3B3E98" enable-background="new    " d="M183.732,446.64c4.484,46.094,11.984,66.888,33.804,101.316
		c21.818,34.432,32.744,29.528,46.852,49.207c5.03,7.018,12.101,17.909,20.4,30.273v-7.052
		c-37.338-57.368-72.107-128.38-102.399-236.254C181.54,393.528,180.575,414.185,183.732,446.64z"/>
	<path opacity="0.2" fill="#3B3E98" enable-background="new    " d="M276.905,534.644c-0.221-22.177-15.998-43.43-35.021-72.771
		c-15.635-24.114-45.271-65.075-55.341-78.913c29.148,103.798,62.47,173.313,98.243,229.426v-8.403
		C260.055,561.196,276.982,542.456,276.905,534.644z"/>
	<path opacity="0.2" fill="#3B3E98" enable-background="new    " d="M165.523,735.726c-28.819,43.812-55.873,76.891-101.832,108.737
		c16.125-3.032,56.805-13.241,94.709-43.5c12.212-9.746,28.753-24.014,26.644-55.084c-0.698-10.272,2.393-28.973,11.896-34.384
		c8.847-5.037,22.102-17.053,87.848-21.915v-4.344C194.623,691.542,175.398,720.71,165.523,735.726z"/>
	<path opacity="0.2" fill="#3B3E98" enable-background="new    " d="M116.28,751.64c-23.04,33.244-40.962,72.496-55.699,89.716
		c45.8-31.618,72.683-64.446,101.331-108.007c10.274-15.613,30.299-45.996,122.876-52.433v-4.095
		c-44.652,2.349-73.295,12.068-90.735,21.351C155.316,718.794,141.485,715.276,116.28,751.64z"/>
	<path opacity="0.2" fill="#3B3E98" enable-background="new    " d="M240.444,751.648c-19.692,28.626-18.51,45.306-41.406,90.816
		c18.395-20.43,25.956-39.491,33.327-58.085c9.755-24.611,19.113-48.088,52.423-71.49v-4.117l-0.413-0.116
		C271.171,717.703,254.012,731.924,240.444,751.648z"/>
	<path opacity="0.2" fill="#3B3E98" enable-background="new    " d="M236.38,785.974c-7.652,19.318-15.514,39.134-35.082,60.452
		c9.81-3.696,31.695-14.145,48.497-38.249c22.329-32.04,1.203-45.812,11.536-61.024c7.088-10.429,15.249-17.89,23.457-23.9v-5.034
		C254.488,740.381,245.624,762.654,236.38,785.974z"/>
	<path fill="#3B3E98" d="M264.302,941.099c-30.91-3.784-46.053,11.961-56.443,23.627c-32.265,36.213-44.658,76.28-48.559,92.219
		c34.286-44.17,68.779-69.396,114.086-95.803c3.26-1.899,7.164-4.181,11.402-7.423v-14.044
		C277.689,941.487,269.765,941.769,264.302,941.099z"/>
	<path fill="#3B3E98" d="M162.235,1060.218c17.992-13.783,58.152-29.558,92.596-50.766c15.025-9.254,23.616-17.045,29.957-25.45
		v-24.91c-3.392,2.38-6.521,4.208-9.225,5.783C230.517,991.126,196.283,1016.195,162.235,1060.218z"/>
	<path opacity="0.2" fill="#3B3E98" enable-background="new    " d="M203.51,851.91c-45.978,15.438-76.613,44.081-87.905,55.983
		c51.681-21.344,94.143-26.138,146.582-26.592c5.763-0.05,13.275-0.127,22.603-2.581v-9.89c-7.729-1.744-15.709-5.825-20.549-9.438
		C239.278,840.773,218.32,846.935,203.51,851.91z"/>
	<path opacity="0.2" fill="#3B3E98" enable-background="new    " d="M222.11,914.046c26.803-0.883,39.029-6.201,53.037-15.01
		l9.297-15.738c-9.098,2.206-16.491,2.276-22.221,2.327c-52.135,0.448-94.296,5.233-145.695,26.569
		C138.987,909.149,181.685,915.377,222.11,914.046z"/>
	<path opacity="0.2" fill="#F67D7D" enable-background="new    " d="M26.245,1189.757c15.215-4.111,49.967-14.056,84.771-27.862
		c46.418-18.418,47.424-18.951,63.786-37.676c16.363-18.724,19.037-27.068,40.601-43.624c22.057-16.935,43.767-32.945,69.386-55.351
		v-4.905c-66.975,59.155-117.077,87.131-169.894,116.593C87.014,1152.481,58.256,1168.534,26.245,1189.757z"/>
	<path opacity="0.2" fill="#F67D7D" enable-background="new    " d="M99.583,1112.185c-28.979,24.813-53.934,44.761-78.122,75.561
		c33.111-22.109,62.683-38.605,91.327-54.584c53.355-29.761,103.921-57.998,172-118.598v-5.068
		c-29.779,26.554-43.071,36.716-77.511,61.364C166.269,1100.21,160.606,1059.933,99.583,1112.185z"/>
	<path opacity="0.2" fill="#F67D7D" enable-background="new    " d="M176.241,1146.324c-16.891,17.349-26.959,10.869-53.677,41.651
		c-26.722,30.783-37.245,50.225-48.568,95.127c-7.97,31.619-10.103,52.188-10.667,61.605
		c74.416-164.977,146.014-233.122,221.459-302.354v-4.412c-18.634,16.429-31.531,29.312-45.632,42.371
		C213.796,1103.806,189.113,1133.101,176.241,1146.324z"/>
	<path opacity="0.2" fill="#F67D7D" enable-background="new    " d="M67.265,1346.49c12.021-12.181,47.447-48.249,66.509-69.76
		c23.194-26.169,41.973-44.826,45.502-66.722c1.258-7.789-12.977-29.185,19.073-68.521c12.092-14.843,31.811-38.128,86.439-88.356
		v-4.914C210.75,1116.238,140.36,1184.442,67.265,1346.49z"/>
	<path opacity="0.2" fill="#F67D7D" enable-background="new    " d="M229.206,1264.394c-0.932-6.656-1.811-13.604-2.705-20.69
		c-3.685-29.119-7.691-60.722-16.674-83.949c2.094,23.071-3.938,64.019-2.959,102.917c1.114,44.229,11.335,44.615,32.63,87.746
		c13.006,26.342,30.479,48.869,45.056,65.111l0.234-0.049v-5.648c-49.283-55.838-51.484-89.996-53.602-123.186
		C230.701,1279.032,230.243,1271.845,229.206,1264.394z"/>
	<path opacity="0.2" fill="#F67D7D" enable-background="new    " d="M255.011,1320.546c23.037-21.467,15.435-48.439,15.435-48.439
		c-3.263-49.274-43.381-99.516-57.261-115.526c9.676,23.976,13.807,56.569,17.604,86.582c0.893,7.069,1.771,13.997,2.697,20.636
		c1.061,7.609,1.544,15.217,2.014,22.576c2.021,31.686,4.144,64.283,49.289,116.846v-6.227
		c-8.078-9.603-15.687-20.155-25.413-36.006C243.653,1335.361,248.642,1326.479,255.011,1320.546z"/>
	<path fill="#3B3E98" d="M180.8,1407.656c-39.874-8.458-61.979-8.243-106.749,3.608c-31.519,8.349-50.546,16.447-59.059,20.518
		c118.81-9.773,200.271-0.262,269.796,16.645v-3.955c-16.986-4.154-32.067-7.459-41.544-10.043
		C219.885,1428.062,220.673,1416.112,180.8,1407.656z"/>
	<path fill="#3B3E98" d="M15.341,1436.088c16.48,4.617,65.198,18.128,93.249,24.381c34.132,7.608,59.55,14.993,80.413,7.474
		c7.424-2.674,19.243-25.492,69.186-16.519c6.898,1.24,15.285,2.826,26.601,5.489v-4.029
		C215.375,1435.917,134.095,1426.319,15.341,1436.088z"/>
	<path fill="none" d="M258.226,2247.92c5.729-0.051,13.123-0.121,22.221-2.327l-9.297,15.738
		c-14.009,8.809-26.234,14.127-53.037,15.01c-40.426,1.33-83.123-4.896-105.582-1.853
		C163.93,2253.154,206.091,2248.368,258.226,2247.92z"/>
	<path fill="none" d="M260.397,1673.056c-7.759,6.771-18.794,22.181-15.9,32.728c2.459,8.96,3.407,24.632,36.292,65.267v-133.539
		C279.194,1648.812,274.034,1661.153,260.397,1673.056z"/>
	<path fill="#F67D7D" d="M237.383,1997.2c-51.004-12.188-91.315-26.367-136.903-58.744c8.34,14.131,31.782,48.906,73.137,74.25
		c13.317,8.166,32.365,18.863,60.863,6.307c9.422-4.153,28.059-7.608,36.381-0.516c2.022,1.725,4.596,3.57,7.771,6.426h2.158v-3.646
		C262.671,2003.257,247.349,1999.581,237.383,1997.2z"/>
	<path fill="#F67D7D" d="M205.66,1956.315c-39.103-10.353-82.109-13.845-103.316-21.842c45.316,32.305,85.334,46.41,136.045,58.522
		c9.867,2.358,24.804,5.946,42.4,22.286v-5.506C249.773,1981.365,247.712,1967.447,205.66,1956.315z"/>
	<path fill="#3B3E98" d="M134.13,1546.522c-28.817,43.812-55.872,76.891-101.831,108.737c16.125-3.033,56.804-13.242,94.709-43.5
		c12.212-9.746,28.753-24.015,26.644-55.084c-0.698-10.272,2.394-28.974,11.896-34.385c9.959-5.671,25.498-20.187,115.241-23.383
		v-4.017C166.933,1496.724,144.935,1530.093,134.13,1546.522z"/>
	<path fill="#3B3E98" d="M162.659,1508.97c-38.736,20.621-52.567,17.104-77.771,53.467c-23.04,33.244-40.962,72.496-55.698,89.715
		c45.799-31.617,72.683-64.444,101.331-108.006c11.219-17.049,34.057-51.703,150.27-53.568v-3.436
		C220.111,1486.244,183.433,1497.914,162.659,1508.97z"/>
	<path opacity="0.2" fill="#3B3E98" enable-background="new    " d="M244.299,1517.536c9.979,55.02,5.718,97.538-4.885,148.896
		c-3.479,16.848-10.078,48.92,41.375,111.463v-6.849c-32.885-40.634-33.833-56.306-36.292-65.267
		c-2.895-10.547,8.143-25.957,15.9-32.727c13.637-11.902,18.797-24.244,20.392-35.545v-19.639c-0.091-0.887-0.185-1.758-0.28-2.607
		C275.103,1567.065,253.558,1531.083,244.299,1517.536z"/>
	<path opacity="0.2" fill="#3B3E98" enable-background="new    " d="M235.183,1665.558c10.543-51.06,14.746-93.28,4.719-148.021
		c-1.754,22.598-16.837,63.023-24.053,102.823c-7.892,43.534,4.377,50.827,17.187,92.798c5.683,18.615,18.771,45.227,47.755,77.786
		v-6.317C224.414,1717.835,231.492,1683.435,235.183,1665.558z"/>
	<path opacity="0.2" fill="#3B3E98" enable-background="new    " d="M179.733,1808.933c4.484,46.095,11.984,66.889,33.804,101.317
		c21.817,34.433,32.744,29.528,46.852,49.207c5.03,7.019,12.101,17.909,20.4,30.272v-7.051
		c-37.338-57.367-72.107-128.379-102.399-236.254C177.541,1755.823,176.576,1776.479,179.733,1808.933z"/>
	<path opacity="0.2" fill="#3B3E98" enable-background="new    " d="M272.906,1896.938c-0.221-22.176-15.998-43.43-35.021-72.771
		c-15.635-24.113-45.271-65.075-55.341-78.913c29.148,103.798,62.47,173.313,98.243,229.426v-8.403
		C256.056,1923.491,272.983,1904.751,272.906,1896.938z"/>
	<path opacity="0.2" fill="#3B3E98" enable-background="new    " d="M161.524,2098.021
		c-28.819,43.812-55.873,76.891-101.832,108.737c16.125-3.032,56.805-13.242,94.709-43.5c12.212-9.746,28.753-24.015,26.644-55.084
		c-0.698-10.272,2.394-28.974,11.896-34.384c8.847-5.037,22.102-17.053,87.848-21.915v-4.345
		C190.624,2053.837,171.399,2083.005,161.524,2098.021z"/>
	<path opacity="0.2" fill="#3B3E98" enable-background="new    " d="M112.281,2113.935c-23.04,33.244-40.962,72.496-55.699,89.715
		c45.8-31.617,72.683-64.445,101.331-108.006c10.274-15.613,30.299-45.996,122.876-52.433v-4.095
		c-44.651,2.349-73.295,12.068-90.735,21.351C151.317,2081.089,137.486,2077.571,112.281,2113.935z"/>
	<path opacity="0.2" fill="#3B3E98" enable-background="new    " d="M236.445,2113.943c-19.692,28.626-18.511,45.306-41.406,90.817
		c18.394-20.431,25.956-39.492,33.327-58.086c9.755-24.611,19.113-48.088,52.423-71.49v-4.117l-0.413-0.117
		C267.172,2079.998,250.013,2094.22,236.445,2113.943z"/>
	<path opacity="0.2" fill="#3B3E98" enable-background="new    " d="M232.381,2148.267c-7.652,19.319-15.514,39.135-35.082,60.453
		c9.81-3.696,31.695-14.145,48.497-38.248c22.329-32.041,1.203-45.813,11.536-61.025c7.088-10.43,15.249-17.891,23.457-23.9v-5.033
		C250.489,2102.677,241.625,2124.949,232.381,2148.267z"/>
	<path fill="#3B3E98" d="M260.303,2295.394c-30.911-3.785-46.053,11.961-56.443,23.627c-32.265,36.213-44.658,76.28-48.559,92.219
		c34.286-44.17,68.779-69.396,114.087-95.803c3.259-1.899,7.163-4.181,11.401-7.422v-14.045
		C273.69,2295.782,265.767,2296.063,260.303,2295.394z"/>
	<path fill="#3B3E98" d="M158.236,2414.513c17.991-13.783,58.152-29.558,92.596-50.766c15.025-9.254,23.616-17.045,29.957-25.45
		v-24.91c-3.392,2.38-6.522,4.208-9.225,5.783C226.519,2345.421,192.284,2370.49,158.236,2414.513z"/>
	<path opacity="0.2" fill="#3B3E98" enable-background="new    " d="M199.511,2214.205c-45.978,15.438-76.613,44.081-87.905,55.983
		c51.681-21.344,94.143-26.138,146.582-26.592c5.763-0.049,13.275-0.127,22.603-2.58v-9.891c-7.729-1.744-15.709-5.825-20.549-9.438
		C235.279,2203.068,214.321,2209.229,199.511,2214.205z"/>
	<path opacity="0.2" fill="#3B3E98" enable-background="new    " d="M218.111,2276.341c26.803-0.883,39.028-6.201,53.037-15.01
		l9.297-15.737c-9.098,2.206-16.491,2.276-22.22,2.327c-52.136,0.448-94.297,5.234-145.696,26.568
		C134.988,2271.444,177.687,2277.673,218.111,2276.341z"/>
</g>
<g id="Layer_3_1_">
	<path fill="none" d="M268.229,3271.585c-8.416,5.933-20.985,20.119-19.197,30.908c1.54,9.283,0.822,25.25,30.454,70.352v-111.048
		C276.41,3265.144,272.711,3268.426,268.229,3271.585z"/>
	<path fill="none" d="M247.431,2474.931c13.989,15.26,18.331,23.557,32.055,35.162v-71.911H181.14
		c0.543,0.199,1.084,0.396,1.627,0.596C229.61,2456.09,230.63,2456.6,247.431,2474.931z"/>
	<path fill="none" d="M279.485,2521.391v-5.167c-32.348-20.999-61.854-36.562-92.247-52.583
		c-15.358-8.094-30.985-16.338-47.269-25.459h-8.792c18.75,10.669,36.57,20.069,54.046,29.279
		C216.244,2483.812,246.339,2499.688,279.485,2521.391z"/>
	<path fill="#3B3E98" d="M79.05,3140.749c0.646,9.412,2.957,29.961,11.202,61.508c11.714,44.806,22.405,64.154,49.392,94.703
		c26.983,30.552,36.998,23.984,54.036,41.187c12.986,13.11,37.924,42.188,63.486,65.459c7.438,6.771,14.544,13.494,22.318,20.696
		v-4.635C212.007,3357.48,146.998,3287.96,79.05,3140.749z"/>
	<path fill="#3B3E98" d="M215.829,3342.79c-32.39-39.059-18.343-60.577-19.667-68.354c-3.722-21.862-22.659-40.354-46.079-66.323
		c-19.248-21.342-54.984-57.104-67.113-69.179c66.613,144.315,130.41,213.631,196.517,274.853v-5.025
		C241.876,3373.556,226.12,3355.202,215.829,3342.79z"/>
	<path opacity="0.2" fill="#F67D7D" enable-background="new    " d="M248.042,3262.829c-5.27,16.615-15.332,48.449,31.443,117.84
		v-7.824c-29.632-45.102-28.914-61.068-30.454-70.352c-1.788-10.789,10.781-24.977,19.197-30.908
		c4.481-3.159,8.182-6.441,11.257-9.788v-121.916c-4.171-10.935-8.348-19.371-11.201-24.646
		C272.524,3170.991,263.894,3212.843,248.042,3262.829z"/>
	<path opacity="0.2" fill="#F67D7D" enable-background="new    " d="M243.923,3261.524c15.763-49.697,24.307-91.259,19.986-146.742
		c-4.079,22.293-23.258,60.945-34.547,99.787c-12.347,42.485-0.897,51.006,7.506,94.076c3.879,19.873,14.835,49.18,42.617,86.62
		v-6.961C227.452,3313.523,238.313,3279.213,243.923,3261.524z"/>
	<path opacity="0.2" fill="#F67D7D" enable-background="new    " d="M127.562,3427.148c24.647,12.172,45.046,14.288,64.939,16.348
		c27.431,2.836,53.552,5.575,86.983,34.41v-4.858c-12.286-10.26-30.623-22.925-53.286-30.644
		C193.31,3431.204,177.573,3436.86,127.562,3427.148z"/>
	<path opacity="0.2" fill="#F67D7D" enable-background="new    " d="M124.361,3430.396c6.217,8.44,22.202,26.679,49.957,36.322
		c36.89,12.813,44.426-11.252,61.868-5.426c19.586,6.546,32.31,18.017,43.299,28.276v-5.904
		c-33.852-30.299-59.968-33.033-87.428-35.874C171.388,3445.656,150.185,3443.457,124.361,3430.396z"/>
	<path fill="#F67D7D" d="M114.038,2969.221c-38.287,6.938-77.156,21.162-100.172,23.797c24.569,4.078,56.325,1.584,85.586-0.722
		c7.121-0.562,14.104-1.113,20.811-1.555c7.504-0.496,14.636-1.508,22.188-2.578c33.854-4.799,68.726-9.725,137.034,30.681v-4.599
		c-18.865-10.977-44.47-23.508-72.903-30.895C160.025,2971.259,157.571,2961.329,114.038,2969.221z"/>
	<path fill="#F67D7D" d="M143.06,2992.441c-7.303,1.035-14.849,2.105-22.515,2.611c-6.688,0.44-13.649,0.989-20.754,1.551
		c-30.157,2.376-62.912,4.951-88.353,0.347c18.496,10.338,75.837,39.418,124.747,32.605c0,0,27.954,1.968,44.297-24.948
		c4.518-7.44,12.2-14.131,40.481-3.938c26.479,9.541,40.094,16.797,57.407,27.49c0.378,0.232,0.744,0.459,1.112,0.688v-4.952
		C210.989,2982.856,176.507,2987.7,143.06,2992.441z"/>
	<path opacity="0.2" fill="#3B3E98" enable-background="new    " d="M165.43,2823.582c-16.803-18.33-17.82-18.839-64.664-36.152
		c-35.119-12.979-70.099-22.095-85.405-25.844c32.504,20.456,61.635,35.823,89.877,50.707
		c53.927,28.426,105.062,55.41,174.248,113.913v-4.82c-26.911-22.566-49.48-38.385-72.433-55.155
		C185.104,2850.191,182.234,2841.912,165.43,2823.582z"/>
	<path opacity="0.2" fill="#3B3E98" enable-background="new    " d="M10.625,2763.708c24.912,30.218,50.332,49.567,79.893,73.686
		c62.247,50.79,66.951,10.391,108.646,38.761c35.538,24.181,48.943,33.961,80.323,60.681v-4.974
		c-70.268-59.86-121.828-87.059-176.263-115.751C74.204,2800.817,44.25,2785.026,10.625,2763.708z"/>
	<path opacity="0.2" fill="#3B3E98" enable-background="new    " d="M56.55,2602.249c0.646,9.412,2.957,29.962,11.202,61.508
		c11.714,44.806,22.405,64.154,49.392,94.704c26.983,30.551,36.998,23.983,54.036,41.185c12.986,13.11,37.924,42.19,63.486,65.458
		c13.917,12.667,26.668,25.169,44.818,40.953v-4.418C203.86,2833.416,132.018,2765.75,56.55,2602.249z"/>
	<path opacity="0.2" fill="#3B3E98" enable-background="new    " d="M193.329,2804.291c-32.39-39.058-18.343-60.577-19.667-68.355
		c-3.722-21.862-22.659-40.355-46.079-66.324c-19.248-21.341-54.984-57.104-67.113-69.178
		c74.14,160.62,144.79,228.337,219.017,295.388v-4.875C225.214,2841.845,205.471,2818.934,193.329,2804.291z"/>
	<path fill="#F67D7D" d="M237.094,2727.28c23.462-20.479,21.854-42.265,20.11-57.791c-5.406-48.199-26.952-84.182-36.21-97.729
		c9.979,55.018,5.718,97.538-4.885,148.896c-3.91,18.943-11.757,57.131,63.375,136.226v-6.096
		c-54.589-60.061-55.373-80.146-58.292-90.781C218.3,2749.458,229.336,2734.05,237.094,2727.28z"/>
	<path fill="#F67D7D" d="M211.878,2719.783c10.544-51.059,14.747-93.281,4.72-148.022c-1.755,22.596-16.837,63.023-24.053,102.823
		c-7.892,43.534,4.376,50.827,17.187,92.798c6.958,22.792,24.999,57.561,69.755,100.573v-4.831
		C199.452,2780.166,207.767,2739.708,211.878,2719.783z"/>
	<path opacity="0.2" fill="#3B3E98" enable-background="new    " d="M127.562,2911.148c24.647,12.172,45.046,14.288,64.939,16.347
		c27.431,2.836,53.552,5.577,86.983,34.412v-4.859c-12.286-10.26-30.623-22.925-53.286-30.643
		C193.31,2915.204,177.573,2920.861,127.562,2911.148z"/>
	<path opacity="0.2" fill="#3B3E98" enable-background="new    " d="M124.361,2914.396c6.217,8.44,22.202,26.679,49.957,36.322
		c36.89,12.813,44.426-11.252,61.868-5.426c19.586,6.546,32.31,18.016,43.299,28.279v-5.906
		c-33.852-30.298-59.968-33.033-87.428-35.875C171.388,2929.657,150.185,2927.457,124.361,2914.396z"/>
	<path fill="#3B3E98" d="M197.527,2509.278c-7.368-1.979-14.325-3.848-21.421-6.336c-6.342-2.227-12.98-4.459-19.751-6.737
		c-27.818-9.361-58.006-19.528-79.004-32.92c22.203,6.608,63.536,8.778,101.476,17.419c43.139,9.825,41.498,19.92,79.576,49.312
		c13.211,10.198,24.928,21.565,34.979,32.691l-1.646,3.859C254.64,2524.629,225.726,2516.854,197.527,2509.278z"/>
	<path fill="#3B3E98" d="M226.057,2539.328c-25.593,18.345-50.534,5.565-50.534,5.565c-47.66-12.927-88.99-62.176-101.946-78.942
		c21.593,14.219,52.731,24.704,81.401,34.352c6.755,2.271,13.372,4.499,19.697,6.717c7.25,2.543,14.61,4.52,21.732,6.433
		c27.867,7.486,56.458,15.206,93.429,57.564l-1.771,4.155c-6.218-7.093-13.506-14.542-23.228-23.582
		C242.823,2531.118,233.132,2534.256,226.057,2539.328z"/>
	<path fill="none" d="M256.923,4336.646c5.729-0.051,13.123-0.121,22.22-2.327l-9.297,15.738
		c-14.009,8.809-26.234,14.127-53.037,15.01c-40.425,1.331-83.123-4.896-105.582-1.852
		C162.626,4341.88,204.787,4337.094,256.923,4336.646z"/>
	<path fill="none" d="M259.094,3761.781c-7.759,6.771-18.794,22.181-15.9,32.728c2.459,8.96,3.407,24.632,36.292,65.266v-133.538
		C277.891,3737.537,272.73,3749.879,259.094,3761.781z"/>
	<path fill="none" d="M279.485,3530.244v-34.062h-84.354c3.509,1.032,7.302,2.092,11.45,3.17
		C235.016,3506.737,260.62,3519.27,279.485,3530.244z"/>
	<path fill="#F67D7D" d="M236.079,4085.926c-51.004-12.188-91.315-26.367-136.904-58.744c8.341,14.131,31.783,48.906,73.138,74.25
		c13.317,8.166,32.364,18.863,60.862,6.307c9.423-4.153,28.06-7.608,36.382-0.516c2.022,1.725,4.596,3.57,7.771,6.426h2.158v-3.646
		C261.367,4091.981,246.044,4088.307,236.079,4085.926z"/>
	<path fill="#F67D7D" d="M204.356,4045.041c-39.103-10.353-82.109-13.845-103.316-21.843c45.316,32.306,85.334,46.41,136.045,58.523
		c9.867,2.359,24.804,5.946,42.4,22.286v-5.506C248.47,4070.091,246.408,4056.173,204.356,4045.041z"/>
	<path opacity="0.2" fill="#F67D7D" enable-background="new    " d="M99.452,3508.296c7.121-0.562,14.104-1.113,20.811-1.555
		c7.504-0.495,14.636-1.508,22.188-2.577c33.854-4.801,68.726-9.726,137.034,30.68v-4.599
		c-18.865-10.977-44.47-23.509-72.903-30.895c-4.148-1.078-7.941-2.138-11.45-3.17H67.591
		c-21.162,5.728-40.188,11.286-53.725,12.836C38.436,3513.096,70.191,3510.602,99.452,3508.296z"/>
	<path opacity="0.2" fill="#F67D7D" enable-background="new    " d="M143.06,3508.441c-7.303,1.035-14.849,2.105-22.515,2.611
		c-6.688,0.441-13.649,0.989-20.754,1.551c-30.157,2.376-62.912,4.951-88.353,0.346c18.496,10.339,75.837,39.418,124.747,32.606
		c0,0,27.954,1.968,44.297-24.948c4.518-7.44,12.2-14.131,40.481-3.938c26.479,9.541,40.094,16.797,57.407,27.489
		c0.378,0.233,0.744,0.46,1.112,0.688v-4.953C210.989,3498.856,176.507,3503.7,143.06,3508.441z"/>
	<path opacity="0.2" fill="#3B3E98" enable-background="new    " d="M132.826,3635.248
		c-28.817,43.812-55.872,76.891-101.831,108.737c16.125-3.033,56.804-13.242,94.709-43.5c12.212-9.746,28.753-24.014,26.643-55.084
		c-0.697-10.272,2.395-28.973,11.897-34.385c9.959-5.671,25.498-20.187,115.241-23.383v-4.018
		C165.628,3585.448,143.632,3618.818,132.826,3635.248z"/>
	<path opacity="0.2" fill="#3B3E98" enable-background="new    " d="M161.355,3597.695c-38.736,20.621-52.567,17.104-77.771,53.467
		c-23.04,33.244-40.962,72.496-55.698,89.716c45.799-31.617,72.683-64.445,101.331-108.007
		c11.219-17.049,34.057-51.702,150.27-53.568v-3.437C218.808,3574.97,182.13,3586.64,161.355,3597.695z"/>
	<path opacity="0.2" fill="#3B3E98" enable-background="new    " d="M242.995,3606.262c9.979,55.019,5.719,97.538-4.885,148.896
		c-3.479,16.849-10.078,48.921,41.375,111.464v-6.849c-32.885-40.634-33.833-56.306-36.292-65.266
		c-2.894-10.547,8.143-25.957,15.9-32.728c13.637-11.901,18.797-24.244,20.392-35.545v-19.639c-0.091-0.886-0.186-1.758-0.28-2.607
		C273.798,3655.792,252.253,3619.809,242.995,3606.262z"/>
	<path opacity="0.2" fill="#3B3E98" enable-background="new    " d="M233.878,3754.285c10.544-51.061,14.747-93.281,4.72-148.022
		c-1.755,22.597-16.837,63.023-24.053,102.823c-7.892,43.534,4.376,50.827,17.187,92.798c5.683,18.615,18.771,45.226,47.755,77.786
		v-6.318C223.11,3806.561,230.188,3772.16,233.878,3754.285z"/>
	<path fill="#F67D7D" d="M178.43,3897.66c4.484,46.094,11.984,66.888,33.804,101.316c21.818,34.432,32.744,29.528,46.852,49.207
		c5.03,7.019,12.101,17.909,20.4,30.273v-7.052c-37.338-57.367-72.107-128.38-102.399-236.254
		C176.237,3844.549,175.272,3865.205,178.43,3897.66z"/>
	<path fill="#F67D7D" d="M271.603,3985.664c-0.221-22.177-15.998-43.43-35.021-72.771c-15.635-24.114-45.271-65.075-55.341-78.913
		c29.148,103.798,62.47,173.313,98.243,229.426v-8.402C254.752,4012.217,271.68,3993.477,271.603,3985.664z"/>
	<path opacity="0.2" fill="#3B3E98" enable-background="new    " d="M160.221,4186.746
		c-28.819,43.812-55.873,76.891-101.832,108.737c16.125-3.032,56.805-13.241,94.709-43.5c12.212-9.746,28.753-24.014,26.644-55.084
		c-0.698-10.272,2.393-28.973,11.896-34.384c8.847-5.037,22.102-17.053,87.848-21.915v-4.344
		C189.32,4142.562,170.096,4171.73,160.221,4186.746z"/>
	<path opacity="0.2" fill="#3B3E98" enable-background="new    " d="M110.978,4202.66c-23.04,33.244-40.962,72.495-55.699,89.716
		c45.8-31.618,72.683-64.446,101.331-108.007c10.274-15.613,30.299-45.996,122.876-52.433v-4.095
		c-44.652,2.349-73.295,12.068-90.735,21.351C150.014,4169.814,136.183,4166.297,110.978,4202.66z"/>
	<path opacity="0.2" fill="#3B3E98" enable-background="new    " d="M235.142,4202.669c-19.692,28.626-18.51,45.306-41.406,90.816
		c18.395-20.43,25.956-39.49,33.327-58.085c9.755-24.611,19.113-48.088,52.423-71.489v-4.118l-0.413-0.116
		C265.868,4168.724,248.709,4182.944,235.142,4202.669z"/>
	<path opacity="0.2" fill="#3B3E98" enable-background="new    " d="M231.077,4236.994c-7.652,19.318-15.514,39.134-35.082,60.452
		c9.81-3.696,31.695-14.145,48.497-38.249c22.329-32.04,1.203-45.812,11.536-61.024c7.088-10.429,15.249-17.891,23.457-23.9v-5.034
		C249.186,4191.401,240.321,4213.675,231.077,4236.994z"/>
	<path fill="#3B3E98" d="M258.999,4392.119c-30.91-3.784-46.053,11.961-56.443,23.627c-32.265,36.213-44.658,76.28-48.559,92.219
		c34.286-44.17,68.779-69.396,114.086-95.803c3.26-1.899,7.164-4.181,11.402-7.423v-14.044
		C272.387,4392.508,264.462,4392.79,258.999,4392.119z"/>
	<path fill="#3B3E98" d="M156.933,4511.238c17.992-13.783,58.152-29.558,92.596-50.766c15.025-9.254,23.616-17.045,29.957-25.45
		v-24.91c-3.392,2.38-6.521,4.208-9.225,5.783C225.214,4442.146,190.98,4467.216,156.933,4511.238z"/>
	<path opacity="0.2" fill="#F67D7D" enable-background="new    " d="M198.207,4302.931c-45.978,15.438-76.613,44.081-87.905,55.984
		c51.681-21.345,94.143-26.139,146.582-26.593c5.763-0.05,13.275-0.127,22.603-2.581v-9.89c-7.729-1.744-15.709-5.825-20.549-9.438
		C233.976,4291.794,213.018,4297.955,198.207,4302.931z"/>
	<path opacity="0.2" fill="#F67D7D" enable-background="new    " d="M216.808,4365.066c26.803-0.883,39.029-6.201,53.037-15.01
		l9.297-15.738c-9.098,2.206-16.491,2.276-22.221,2.327c-52.135,0.448-94.296,5.234-145.695,26.569
		C133.685,4360.17,176.382,4366.397,216.808,4365.066z"/>
	<path opacity="0.2" fill="#F67D7D" enable-background="new    " d="M20.942,4640.776c15.215-4.11,49.967-14.055,84.771-27.862
		c46.418-18.418,47.424-18.95,63.786-37.676c16.363-18.723,19.037-27.067,40.601-43.624c22.057-16.934,43.767-32.944,69.386-55.35
		v-4.905c-66.975,59.155-117.077,87.13-169.894,116.592C81.711,4603.502,52.953,4619.555,20.942,4640.776z"/>
	<path opacity="0.2" fill="#F67D7D" enable-background="new    " d="M94.28,4563.206c-28.979,24.812-53.934,44.76-78.122,75.56
		c33.111-22.11,62.683-38.605,91.327-54.584c53.355-29.761,103.921-57.998,172-118.598v-5.068
		c-29.779,26.554-43.071,36.716-77.511,61.364C160.966,4551.23,155.304,4510.953,94.28,4563.206z"/>
	<path fill="#3B3E98" d="M170.938,4597.345c-16.891,17.349-26.959,10.869-53.677,41.651c-26.722,30.782-37.245,50.225-48.568,95.127
		c-7.97,31.619-10.103,52.188-10.667,61.605c74.416-164.977,146.014-233.122,221.459-302.354v-4.411
		c-18.634,16.428-31.531,29.311-45.632,42.37C208.493,4554.826,183.811,4584.121,170.938,4597.345z"/>
	<path fill="#3B3E98" d="M61.962,4797.511c12.021-12.181,47.447-48.249,66.509-69.76c23.194-26.169,41.973-44.826,45.502-66.722
		c1.258-7.789-12.977-29.185,19.073-68.521c12.092-14.843,31.811-38.128,86.439-88.357v-4.913
		C205.447,4567.259,135.058,4635.463,61.962,4797.511z"/>
	<path opacity="0.2" fill="#F67D7D" enable-background="new    " d="M223.903,4715.415c-0.932-6.657-1.811-13.604-2.705-20.691
		c-3.685-29.119-7.691-60.721-16.674-83.949c2.094,23.071-3.938,64.02-2.959,102.917c1.114,44.229,11.335,44.615,32.63,87.746
		c13.006,26.342,30.479,48.868,45.056,65.111l0.234-0.049v-5.649c-49.283-55.837-51.484-89.995-53.602-123.185
		C225.398,4730.053,224.94,4722.864,223.903,4715.415z"/>
	<path opacity="0.2" fill="#F67D7D" enable-background="new    " d="M249.708,4771.566c23.037-21.467,15.435-48.439,15.435-48.439
		c-3.263-49.274-43.381-99.516-57.261-115.526c9.676,23.976,13.807,56.57,17.604,86.582c0.893,7.069,1.771,13.997,2.697,20.636
		c1.061,7.609,1.544,15.217,2.014,22.576c2.021,31.686,4.144,64.282,49.289,116.846v-6.228
		c-8.078-9.603-15.687-20.155-25.413-36.006C238.351,4786.382,243.339,4777.501,249.708,4771.566z"/>
	<path fill="#F67D7D" d="M175.497,4858.677c-39.874-8.458-61.979-8.243-106.749,3.608c-31.519,8.349-50.546,16.447-59.059,20.518
		c118.81-9.773,200.271-0.261,269.796,16.644v-3.954c-16.986-4.154-32.067-7.459-41.544-10.043
		C214.582,4879.082,215.37,4867.133,175.497,4858.677z"/>
	<path fill="#F67D7D" d="M10.038,4887.108c16.48,4.617,65.198,18.128,93.249,24.381c34.132,7.608,59.55,14.993,80.413,7.475
		c7.424-2.675,19.243-25.493,69.186-16.52c6.898,1.24,15.285,2.826,26.601,5.489v-4.029
		C210.072,4886.938,128.792,4877.34,10.038,4887.108z"/>
	<path opacity="0.2" fill="#3B3E98" enable-background="new    " d="M128.118,4999.175c-30.887,42.38-59.495,74.123-106.929,103.729
		c16.252-2.255,57.373-10.502,96.687-38.907c12.664-9.149,29.871-22.606,29.253-53.743c-0.204-10.294,3.779-28.824,13.532-33.774
		c10.317-5.235,26.758-19.201,118.824-17.792v-3.973C163.587,4950.545,139.78,4983.171,128.118,4999.175z"/>
	<path opacity="0.2" fill="#3B3E98" enable-background="new    " d="M158.415,4963.033c-39.681,18.74-53.326,14.563-80.246,49.677
		c-24.606,32.101-44.391,70.448-59.938,86.939c47.262-29.385,75.689-60.886,106.395-103.021
		c12.1-16.599,36.789-50.441,154.859-46.234v-3.371C217.716,4942.863,179.932,4952.874,158.415,4963.033z"/>
	<path fill="none" d="M272.229,5795.586c-8.416,5.932-20.985,20.119-19.197,30.908c1.54,9.281,0.822,25.248,30.454,70.351v-111.048
		C280.41,5789.144,276.711,5792.426,272.229,5795.586z"/>
	<path fill="none" d="M251.431,4998.93c13.989,15.26,18.331,23.558,32.055,35.162v-71.91H185.14
		c0.543,0.199,1.084,0.396,1.627,0.596C233.61,4980.09,234.63,4980.6,251.431,4998.93z"/>
	<path fill="none" d="M283.485,5045.391v-5.166c-32.348-20.999-61.854-36.562-92.247-52.584
		c-15.358-8.094-30.985-16.338-47.269-25.459h-8.792c18.75,10.669,36.57,20.068,54.046,29.279
		C220.244,5007.812,250.339,5023.689,283.485,5045.391z"/>
	<path fill="#3B3E98" d="M83.05,5664.748c0.646,9.412,2.957,29.963,11.202,61.51c11.714,44.806,22.405,64.154,49.392,94.703
		c26.983,30.551,36.998,23.982,54.036,41.186c12.986,13.11,37.924,42.189,63.486,65.459c7.438,6.771,14.544,13.494,22.318,20.696
		v-4.634C216.007,5881.48,150.998,5811.961,83.05,5664.748z"/>
	<path fill="#3B3E98" d="M219.829,5866.791c-32.39-39.06-18.343-60.578-19.667-68.355c-3.722-21.863-22.659-40.355-46.079-66.324
		c-19.248-21.342-54.984-57.104-67.113-69.178c66.613,144.314,130.41,213.631,196.517,274.852v-5.024
		C245.876,5897.556,230.12,5879.203,219.829,5866.791z"/>
	<path fill="#3B3E98" d="M252.042,5786.83c-5.27,16.613-15.332,48.447,31.443,117.839v-7.824
		c-29.632-45.103-28.914-61.068-30.454-70.351c-1.788-10.789,10.781-24.978,19.197-30.908c4.481-3.16,8.182-6.442,11.257-9.789
		v-121.916c-4.171-10.937-8.348-19.371-11.201-24.646C276.524,5694.99,267.894,5736.842,252.042,5786.83z"/>
	<path fill="#3B3E98" d="M247.923,5785.524c15.763-49.696,24.307-91.259,19.986-146.743c-4.079,22.295-23.258,60.946-34.547,99.787
		c-12.347,42.486-0.897,51.009,7.506,94.077c3.879,19.873,14.835,49.181,42.617,86.62v-6.961
		C231.452,5837.523,242.313,5803.213,247.923,5785.524z"/>
	<path fill="#3B3E98" d="M131.562,5951.148c24.647,12.172,45.046,14.288,64.939,16.348c27.431,2.836,53.552,5.575,86.983,34.41
		v-4.858c-12.286-10.261-30.623-22.925-53.286-30.644C197.31,5955.203,181.573,5960.86,131.562,5951.148z"/>
	<path fill="#3B3E98" d="M128.361,5954.396c6.217,8.44,22.202,26.68,49.957,36.322c36.89,12.814,44.426-11.252,61.868-5.426
		c19.586,6.546,32.31,18.017,43.299,28.277v-5.905c-33.852-30.298-59.968-33.033-87.428-35.874
		C175.388,5969.656,154.185,5967.457,128.361,5954.396z"/>
	<path opacity="0.2" fill="#3B3E98" enable-background="new    " d="M118.038,5493.221c-38.287,6.939-77.156,21.162-100.172,23.797
		c24.569,4.078,56.325,1.584,85.586-0.722c7.121-0.562,14.104-1.113,20.811-1.554c7.504-0.496,14.636-1.508,22.188-2.578
		c33.854-4.799,68.726-9.725,137.034,30.68v-4.598c-18.865-10.977-44.47-23.509-72.903-30.895
		C164.025,5495.259,161.571,5485.33,118.038,5493.221z"/>
	<path opacity="0.2" fill="#3B3E98" enable-background="new    " d="M147.06,5516.441c-7.303,1.035-14.849,2.105-22.515,2.611
		c-6.688,0.441-13.649,0.989-20.754,1.551c-30.157,2.376-62.912,4.951-88.353,0.346c18.496,10.338,75.837,39.418,124.747,32.606
		c0,0,27.954,1.968,44.297-24.948c4.518-7.44,12.2-14.131,40.481-3.938c26.479,9.541,40.094,16.797,57.407,27.489
		c0.378,0.233,0.744,0.461,1.112,0.688v-4.951C214.989,5506.856,180.507,5511.699,147.06,5516.441z"/>
	<path fill="#F67D7D" d="M169.43,5347.582c-16.803-18.33-17.82-18.841-64.664-36.152c-35.119-12.979-70.099-22.096-85.405-25.844
		c32.504,20.455,61.635,35.821,89.877,50.707c53.927,28.426,105.062,55.409,174.248,113.912v-4.819
		c-26.911-22.565-49.48-38.386-72.433-55.155C189.104,5374.191,186.234,5365.912,169.43,5347.582z"/>
	<path fill="#F67D7D" d="M14.625,5287.709c24.912,30.219,50.332,49.565,79.893,73.686c62.247,50.79,66.951,10.392,108.646,38.762
		c35.538,24.181,48.943,33.961,80.323,60.682v-4.975c-70.268-59.859-121.828-87.059-176.263-115.751
		C78.204,5324.818,48.25,5309.027,14.625,5287.709z"/>
	<path opacity="0.2" fill="#3B3E98" enable-background="new    " d="M60.55,5126.248c0.646,9.412,2.957,29.963,11.202,61.51
		c11.714,44.806,22.405,64.154,49.392,94.703c26.983,30.551,36.998,23.982,54.036,41.186c12.986,13.11,37.924,42.189,63.486,65.459
		c13.917,12.666,26.668,25.169,44.818,40.953v-4.418C207.86,5357.416,136.018,5289.751,60.55,5126.248z"/>
	<path opacity="0.2" fill="#3B3E98" enable-background="new    " d="M197.329,5328.291c-32.39-39.06-18.343-60.578-19.667-68.355
		c-3.722-21.863-22.659-40.355-46.079-66.324c-19.248-21.342-54.984-57.104-67.113-69.178
		c74.14,160.619,144.79,228.336,219.017,295.387v-4.875C229.214,5365.845,209.471,5342.934,197.329,5328.291z"/>
	<path fill="#F67D7D" d="M241.094,5192.281c23.462-20.479,21.854-42.265,20.11-57.791c-5.406-48.197-26.952-84.182-36.21-97.729
		c9.979,55.02,5.718,97.538-4.885,148.896c-3.91,18.941-11.757,57.131,63.375,136.226v-6.096
		c-54.589-60.062-55.373-80.146-58.292-90.78C222.3,5214.461,233.336,5199.051,241.094,5192.281z"/>
	<path fill="#F67D7D" d="M215.878,5184.785c10.544-51.061,14.747-93.281,4.72-148.022c-1.755,22.597-16.837,63.022-24.053,102.823
		c-7.892,43.533,4.376,50.826,17.187,92.798c6.958,22.792,24.999,57.562,69.755,100.574v-4.832
		C203.452,5245.168,211.767,5204.711,215.878,5184.785z"/>
	<path opacity="0.2" fill="#3B3E98" enable-background="new    " d="M131.562,5435.148c24.647,12.172,45.046,14.288,64.939,16.348
		c27.431,2.836,53.552,5.576,86.983,34.41v-4.858c-12.286-10.261-30.623-22.925-53.286-30.644
		C197.31,5439.203,181.573,5444.86,131.562,5435.148z"/>
	<path opacity="0.2" fill="#3B3E98" enable-background="new    " d="M128.361,5438.396c6.217,8.44,22.202,26.68,49.957,36.322
		c36.89,12.814,44.426-11.252,61.868-5.426c19.586,6.546,32.31,18.016,43.299,28.277v-5.905
		c-33.852-30.298-59.968-33.033-87.428-35.874C175.388,5453.656,154.185,5451.457,128.361,5438.396z"/>
	<path fill="none" d="M260.923,6860.646c5.729-0.051,13.123-0.121,22.22-2.327l-9.297,15.738
		c-14.009,8.81-26.234,14.127-53.037,15.01c-40.425,1.332-83.123-4.896-105.582-1.852
		C166.626,6865.88,208.787,6861.094,260.923,6860.646z"/>
	<path fill="none" d="M263.094,6285.781c-7.759,6.771-18.794,22.181-15.9,32.728c2.459,8.96,3.407,24.632,36.292,65.267v-133.537
		C281.891,6261.537,276.73,6273.879,263.094,6285.781z"/>
	<path fill="none" d="M283.485,6054.244v-34.062h-84.354c3.509,1.032,7.302,2.092,11.45,3.17
		C239.016,6030.737,264.62,6043.27,283.485,6054.244z"/>
	<path fill="#F67D7D" d="M240.079,6609.926c-51.004-12.188-91.315-26.367-136.904-58.744c8.341,14.131,31.783,48.906,73.138,74.25
		c13.317,8.166,32.364,18.863,60.862,6.307c9.423-4.154,28.06-7.608,36.382-0.516c2.022,1.725,4.596,3.57,7.771,6.426h2.158v-3.646
		C265.367,6615.981,250.044,6612.307,240.079,6609.926z"/>
	<path fill="#F67D7D" d="M208.356,6569.041c-39.103-10.353-82.109-13.845-103.316-21.843c45.316,32.306,85.334,46.41,136.045,58.523
		c9.867,2.358,24.804,5.946,42.4,22.286v-5.507C252.47,6594.091,250.408,6580.173,208.356,6569.041z"/>
	<path opacity="0.2" fill="#F67D7D" enable-background="new    " d="M103.452,6032.296c7.121-0.562,14.104-1.113,20.811-1.554
		c7.504-0.496,14.636-1.509,22.188-2.578c33.854-4.801,68.726-9.726,137.034,30.68v-4.6c-18.865-10.976-44.47-23.508-72.903-30.894
		c-4.148-1.078-7.941-2.138-11.45-3.17H71.591c-21.162,5.728-40.188,11.286-53.725,12.836
		C42.436,6037.096,74.191,6034.602,103.452,6032.296z"/>
	<path opacity="0.2" fill="#F67D7D" enable-background="new    " d="M147.06,6032.441c-7.303,1.035-14.849,2.105-22.515,2.611
		c-6.688,0.441-13.649,0.989-20.754,1.551c-30.157,2.376-62.912,4.951-88.353,0.346c18.496,10.338,75.837,39.418,124.747,32.606
		c0,0,27.954,1.968,44.297-24.948c4.518-7.44,12.2-14.131,40.481-3.938c26.479,9.541,40.094,16.797,57.407,27.489
		c0.378,0.233,0.744,0.461,1.112,0.688v-4.953C214.989,6022.856,180.507,6027.701,147.06,6032.441z"/>
	<path opacity="0.2" fill="#F67D7D" enable-background="new    " d="M136.826,6159.248
		c-28.817,43.812-55.872,76.891-101.831,108.737c16.125-3.032,56.804-13.241,94.709-43.5c12.212-9.746,28.753-24.014,26.643-55.084
		c-0.697-10.272,2.395-28.973,11.897-34.385c9.959-5.671,25.498-20.187,115.241-23.383v-4.018
		C169.628,6109.449,147.632,6142.818,136.826,6159.248z"/>
	<path opacity="0.2" fill="#F67D7D" enable-background="new    " d="M165.355,6121.695c-38.736,20.621-52.567,17.104-77.771,53.467
		c-23.04,33.244-40.962,72.496-55.698,89.716c45.799-31.617,72.683-64.445,101.331-108.007
		c11.219-17.049,34.057-51.702,150.27-53.568v-3.437C222.808,6098.97,186.13,6110.64,165.355,6121.695z"/>
	<path fill="#F67D7D" d="M246.995,6130.262c9.979,55.02,5.719,97.538-4.885,148.896c-3.479,16.848-10.078,48.92,41.375,111.463
		v-6.849c-32.885-40.634-33.833-56.306-36.292-65.266c-2.894-10.548,8.143-25.957,15.9-32.728
		c13.637-11.902,18.797-24.244,20.392-35.545v-19.639c-0.091-0.886-0.186-1.758-0.28-2.607
		C277.798,6179.792,256.253,6143.809,246.995,6130.262z"/>
	<path fill="#F67D7D" d="M237.878,6278.285c10.544-51.061,14.747-93.281,4.72-148.022c-1.755,22.597-16.837,63.022-24.053,102.823
		c-7.892,43.533,4.376,50.826,17.187,92.798c5.683,18.615,18.771,45.226,47.755,77.786v-6.318
		C227.11,6330.561,234.188,6296.16,237.878,6278.285z"/>
	<path opacity="0.2" fill="#3B3E98" enable-background="new    " d="M182.43,6421.66c4.484,46.094,11.984,66.888,33.804,101.316
		c21.818,34.432,32.744,29.528,46.852,49.207c5.03,7.018,12.101,17.909,20.4,30.273v-7.052
		c-37.338-57.368-72.107-128.38-102.399-236.254C180.237,6368.549,179.272,6389.205,182.43,6421.66z"/>
	<path opacity="0.2" fill="#3B3E98" enable-background="new    " d="M275.603,6509.664c-0.221-22.177-15.998-43.43-35.021-72.771
		c-15.635-24.114-45.271-65.075-55.341-78.913c29.148,103.798,62.47,173.313,98.243,229.426v-8.403
		C258.752,6536.217,275.68,6517.477,275.603,6509.664z"/>
	<path opacity="0.2" fill="#3B3E98" enable-background="new    " d="M164.221,6710.746
		c-28.819,43.812-55.873,76.891-101.832,108.737c16.125-3.032,56.805-13.241,94.709-43.5c12.212-9.746,28.753-24.014,26.644-55.084
		c-0.698-10.272,2.393-28.973,11.896-34.384c8.847-5.037,22.102-17.053,87.848-21.915v-4.344
		C193.32,6666.562,174.096,6695.73,164.221,6710.746z"/>
	<path opacity="0.2" fill="#3B3E98" enable-background="new    " d="M114.978,6726.66c-23.04,33.244-40.962,72.496-55.699,89.716
		c45.8-31.618,72.683-64.446,101.331-108.007c10.274-15.613,30.299-45.996,122.876-52.433v-4.095
		c-44.652,2.349-73.295,12.068-90.735,21.351C154.014,6693.814,140.183,6690.297,114.978,6726.66z"/>
	<path opacity="0.2" fill="#3B3E98" enable-background="new    " d="M239.142,6726.669c-19.692,28.626-18.51,45.306-41.406,90.816
		c18.395-20.43,25.956-39.491,33.327-58.085c9.755-24.611,19.113-48.088,52.423-71.49v-4.117l-0.413-0.116
		C269.868,6692.724,252.709,6706.944,239.142,6726.669z"/>
	<path opacity="0.2" fill="#3B3E98" enable-background="new    " d="M235.077,6760.994c-7.652,19.318-15.514,39.134-35.082,60.452
		c9.81-3.696,31.695-14.145,48.497-38.249c22.329-32.04,1.203-45.812,11.536-61.024c7.088-10.429,15.249-17.89,23.457-23.9v-5.034
		C253.186,6715.401,244.321,6737.675,235.077,6760.994z"/>
	<path fill="#3B3E98" d="M262.999,6916.119c-30.91-3.784-46.053,11.961-56.443,23.627c-32.265,36.213-44.658,76.28-48.559,92.219
		c34.286-44.17,68.779-69.396,114.086-95.803c3.26-1.899,7.164-4.181,11.402-7.423v-14.044
		C276.387,6916.508,268.462,6916.789,262.999,6916.119z"/>
	<path fill="#3B3E98" d="M160.933,7035.238c17.992-13.783,58.152-29.558,92.596-50.766c15.025-9.254,23.616-17.045,29.957-25.45
		v-24.91c-3.392,2.38-6.521,4.208-9.225,5.783C229.214,6966.146,194.98,6991.216,160.933,7035.238z"/>
	<path opacity="0.2" fill="#3B3E98" enable-background="new    " d="M202.207,6826.931c-45.978,15.438-76.613,44.081-87.905,55.983
		c51.681-21.344,94.143-26.138,146.582-26.592c5.763-0.05,13.275-0.127,22.603-2.581v-9.89c-7.729-1.744-15.709-5.825-20.549-9.438
		C237.976,6815.794,217.018,6821.955,202.207,6826.931z"/>
	<path opacity="0.2" fill="#3B3E98" enable-background="new    " d="M220.808,6889.066c26.803-0.883,39.029-6.201,53.037-15.01
		l9.297-15.738c-9.098,2.206-16.491,2.276-22.221,2.327c-52.135,0.448-94.296,5.233-145.695,26.569
		C137.685,6884.17,180.382,6890.397,220.808,6889.066z"/>
	<path opacity="0.2" fill="#F67D7D" enable-background="new    " d="M24.942,7164.777c15.215-4.111,49.967-14.056,84.771-27.862
		c46.418-18.418,47.424-18.951,63.786-37.676c16.363-18.724,19.037-27.068,40.601-43.624c22.057-16.935,43.767-32.945,69.386-55.351
		v-4.905c-66.975,59.155-117.077,87.131-169.894,116.593C85.711,7127.502,56.953,7143.555,24.942,7164.777z"/>
	<path opacity="0.2" fill="#F67D7D" enable-background="new    " d="M98.28,7087.205c-28.979,24.813-53.934,44.761-78.122,75.561
		c33.111-22.109,62.683-38.605,91.327-54.584c53.355-29.761,103.921-57.998,172-118.598v-5.068
		c-29.779,26.554-43.071,36.716-77.511,61.364C164.966,7075.23,159.304,7034.953,98.28,7087.205z"/>
	<path opacity="0.2" fill="#F67D7D" enable-background="new    " d="M174.938,7121.345c-16.891,17.349-26.959,10.869-53.677,41.651
		c-26.722,30.783-37.245,50.225-48.568,95.127c-7.97,31.619-10.103,52.188-10.667,61.605
		c74.416-164.977,146.014-233.122,221.459-302.354v-4.412c-18.634,16.429-31.531,29.312-45.632,42.371
		C212.493,7078.826,187.811,7108.121,174.938,7121.345z"/>
	<path opacity="0.2" fill="#F67D7D" enable-background="new    " d="M65.962,7321.511c12.021-12.181,47.447-48.249,66.509-69.76
		c23.194-26.169,41.973-44.826,45.502-66.722c1.258-7.789-12.977-29.185,19.073-68.521c12.092-14.843,31.811-38.128,86.439-88.356
		v-4.914C209.447,7091.259,139.058,7159.463,65.962,7321.511z"/>
	<path opacity="0.2" fill="#F67D7D" enable-background="new    " d="M227.903,7239.414c-0.932-6.656-1.811-13.604-2.705-20.69
		c-3.685-29.119-7.691-60.722-16.674-83.949c2.094,23.071-3.938,64.019-2.959,102.917c1.114,44.229,11.335,44.615,32.63,87.746
		c13.006,26.342,30.479,48.869,45.056,65.111l0.234-0.049v-5.648c-49.283-55.838-51.484-89.996-53.602-123.186
		C229.398,7254.053,228.94,7246.865,227.903,7239.414z"/>
	<path opacity="0.2" fill="#F67D7D" enable-background="new    " d="M253.708,7295.566c23.037-21.467,15.435-48.439,15.435-48.439
		c-3.263-49.274-43.381-99.516-57.261-115.526c9.676,23.976,13.807,56.569,17.604,86.582c0.893,7.069,1.771,13.997,2.697,20.636
		c1.061,7.609,1.544,15.217,2.014,22.576c2.021,31.686,4.144,64.283,49.289,116.846v-6.227
		c-8.078-9.603-15.687-20.155-25.413-36.006C242.351,7310.382,247.339,7301.5,253.708,7295.566z"/>
	<path fill="#3B3E98" d="M179.497,7382.677c-39.874-8.458-61.979-8.243-106.749,3.608c-31.519,8.349-50.546,16.447-59.059,20.518
		c118.81-9.773,200.271-0.262,269.796,16.645v-3.955c-16.986-4.154-32.067-7.459-41.544-10.043
		C218.582,7403.082,219.37,7391.133,179.497,7382.677z"/>
	<path fill="#3B3E98" d="M14.038,7411.108c16.48,4.617,65.198,18.128,93.249,24.381c34.132,7.608,59.55,14.993,80.413,7.474
		c7.424-2.674,19.243-25.492,69.186-16.519c6.898,1.24,15.285,2.826,26.601,5.489v-4.029
		C214.072,7410.938,132.792,7401.34,14.038,7411.108z"/>
	<path fill="none" d="M256.923,8222.94c5.729-0.051,13.123-0.121,22.221-2.327l-9.297,15.738
		c-14.009,8.809-26.234,14.127-53.037,15.01c-40.426,1.33-83.123-4.896-105.582-1.853
		C162.627,8228.175,204.788,8223.389,256.923,8222.94z"/>
	<path fill="none" d="M259.095,7648.076c-7.759,6.771-18.794,22.181-15.9,32.728c2.459,8.96,3.407,24.632,36.292,65.267v-133.539
		C277.892,7623.832,272.731,7636.174,259.095,7648.076z"/>
	<path fill="#F67D7D" d="M236.08,7972.221c-51.004-12.188-91.315-26.367-136.903-58.744c8.34,14.131,31.782,48.906,73.137,74.25
		c13.317,8.166,32.365,18.863,60.863,6.307c9.422-4.153,28.059-7.608,36.381-0.516c2.022,1.725,4.596,3.57,7.771,6.426h2.158v-3.646
		C261.368,7978.277,246.046,7974.602,236.08,7972.221z"/>
	<path fill="#F67D7D" d="M204.357,7931.336c-39.103-10.353-82.109-13.845-103.316-21.842c45.316,32.305,85.334,46.41,136.045,58.522
		c9.867,2.358,24.804,5.946,42.4,22.286v-5.506C248.471,7956.386,246.409,7942.468,204.357,7931.336z"/>
	<path fill="#3B3E98" d="M132.827,7521.543c-28.817,43.812-55.872,76.891-101.831,108.737c16.125-3.033,56.804-13.242,94.709-43.5
		c12.212-9.746,28.753-24.015,26.644-55.084c-0.698-10.272,2.394-28.974,11.896-34.385c9.959-5.671,25.498-20.187,115.241-23.383
		v-4.017C165.63,7471.744,143.632,7505.113,132.827,7521.543z"/>
	<path fill="#3B3E98" d="M161.356,7483.99c-38.736,20.621-52.567,17.104-77.771,53.467c-23.04,33.244-40.962,72.496-55.698,89.715
		c45.799-31.617,72.683-64.444,101.331-108.006c11.219-17.049,34.057-51.703,150.27-53.568v-3.436
		C218.809,7461.265,182.13,7472.935,161.356,7483.99z"/>
	<path opacity="0.2" fill="#3B3E98" enable-background="new    " d="M242.996,7492.557c9.979,55.02,5.718,97.538-4.885,148.896
		c-3.479,16.848-10.078,48.92,41.375,111.463v-6.849c-32.885-40.634-33.833-56.306-36.292-65.267
		c-2.895-10.547,8.143-25.957,15.9-32.727c13.637-11.902,18.797-24.244,20.392-35.545v-19.639c-0.091-0.887-0.185-1.758-0.28-2.607
		C273.8,7542.086,252.255,7506.104,242.996,7492.557z"/>
	<path opacity="0.2" fill="#3B3E98" enable-background="new    " d="M233.88,7640.578c10.543-51.06,14.746-93.28,4.719-148.021
		c-1.754,22.598-16.837,63.023-24.053,102.823c-7.892,43.534,4.377,50.827,17.187,92.798c5.683,18.615,18.771,45.227,47.755,77.786
		v-6.317C223.111,7692.855,230.189,7658.455,233.88,7640.578z"/>
	<path opacity="0.2" fill="#3B3E98" enable-background="new    " d="M178.431,7783.953c4.484,46.095,11.984,66.889,33.804,101.317
		c21.817,34.433,32.744,29.528,46.852,49.207c5.03,7.019,12.101,17.909,20.4,30.272v-7.051
		c-37.338-57.367-72.107-128.379-102.399-236.254C176.238,7730.844,175.273,7751.5,178.431,7783.953z"/>
	<path opacity="0.2" fill="#3B3E98" enable-background="new    " d="M271.604,7871.959c-0.221-22.176-15.998-43.43-35.021-72.771
		c-15.635-24.113-45.271-65.075-55.341-78.913c29.148,103.798,62.47,173.313,98.243,229.426v-8.403
		C254.753,7898.512,271.681,7879.771,271.604,7871.959z"/>
	<path opacity="0.2" fill="#3B3E98" enable-background="new    " d="M160.222,8073.041
		c-28.819,43.812-55.873,76.891-101.832,108.737c16.125-3.032,56.805-13.242,94.709-43.5c12.212-9.746,28.753-24.015,26.644-55.084
		c-0.698-10.272,2.394-28.974,11.896-34.384c8.847-5.037,22.102-17.053,87.848-21.915v-4.345
		C189.321,8028.857,170.097,8058.025,160.222,8073.041z"/>
	<path opacity="0.2" fill="#3B3E98" enable-background="new    " d="M110.979,8088.955c-23.04,33.244-40.962,72.496-55.699,89.715
		c45.8-31.617,72.683-64.445,101.331-108.006c10.274-15.613,30.299-45.996,122.876-52.433v-4.095
		c-44.651,2.349-73.295,12.068-90.735,21.351C150.015,8056.109,136.184,8052.592,110.979,8088.955z"/>
	<path opacity="0.2" fill="#3B3E98" enable-background="new    " d="M235.143,8088.964c-19.692,28.626-18.511,45.306-41.406,90.817
		c18.394-20.431,25.956-39.492,33.327-58.086c9.755-24.611,19.113-48.088,52.423-71.49v-4.117l-0.413-0.117
		C265.869,8055.019,248.71,8069.24,235.143,8088.964z"/>
	<path opacity="0.2" fill="#3B3E98" enable-background="new    " d="M231.078,8123.287c-7.652,19.319-15.514,39.135-35.082,60.453
		c9.81-3.696,31.695-14.145,48.497-38.248c22.329-32.041,1.203-45.813,11.536-61.025c7.088-10.43,15.249-17.891,23.457-23.9v-5.033
		C249.187,8077.697,240.322,8099.97,231.078,8123.287z"/>
	<path fill="#3B3E98" d="M259,8270.414c-30.911-3.785-46.053,11.961-56.443,23.627c-32.265,36.213-44.658,76.28-48.559,92.219
		c34.286-44.17,68.779-69.396,114.087-95.803c3.259-1.899,7.163-4.181,11.401-7.422v-14.045
		C272.388,8270.803,264.464,8271.084,259,8270.414z"/>
	<path fill="#3B3E98" d="M156.934,8389.533c17.991-13.783,58.152-29.558,92.596-50.766c15.025-9.254,23.616-17.045,29.957-25.45
		v-24.91c-3.392,2.38-6.522,4.208-9.225,5.783C225.216,8320.441,190.981,8345.511,156.934,8389.533z"/>
	<path opacity="0.2" fill="#3B3E98" enable-background="new    " d="M198.208,8189.226c-45.978,15.438-76.613,44.081-87.905,55.983
		c51.681-21.344,94.143-26.138,146.582-26.592c5.763-0.049,13.275-0.127,22.603-2.58v-9.891c-7.729-1.744-15.709-5.825-20.549-9.438
		C233.977,8178.089,213.019,8184.25,198.208,8189.226z"/>
	<path opacity="0.2" fill="#3B3E98" enable-background="new    " d="M216.809,8251.361c26.803-0.883,39.028-6.201,53.037-15.01
		l9.297-15.737c-9.098,2.206-16.491,2.276-22.22,2.327c-52.136,0.448-94.297,5.234-145.696,26.568
		C133.686,8246.465,176.384,8252.693,216.809,8251.361z"/>
</g>
</svg>
