<?xml version="1.0" encoding="utf-8"?>
<!-- Generator: Adobe Illustrator 16.0.0, SVG Export Plug-In . SVG Version: 6.00 Build 0)  -->
<!DOCTYPE svg PUBLIC "-//W3C//DTD SVG 1.1//EN" "http://www.w3.org/Graphics/SVG/1.1/DTD/svg11.dtd">
<svg version="1.1" xmlns="http://www.w3.org/2000/svg" xmlns:xlink="http://www.w3.org/1999/xlink" x="0px" y="0px" width="296px"
	 height="1564px" viewBox="1764.5 -601.5 296 1564" enable-background="new 1764.5 -601.5 296 1564" xml:space="preserve">
	<g id="LEAVES-Left_1_">
		<g>
			<path fill="#3B3E98" d="M1930.48,192.62c-7.121-0.561-14.104-1.113-20.81-1.555c-7.504-0.496-14.636-1.507-22.189-2.577
				c-38.493-5.458-78.29-11.087-167.073,49.949l-2.578-2.192c0,0,46.711-37.295,105.521-52.569
				c46.557-12.093,49.011-22.022,92.544-14.132c38.287,6.94,77.156,21.163,100.172,23.798
				C1991.496,197.42,1959.74,194.926,1930.48,192.62z"/>
			<path fill="#3B3E98" d="M1886.873,192.766c7.302,1.035,14.848,2.105,22.514,2.611c6.689,0.441,13.65,0.99,20.754,1.552
				c30.157,2.375,62.912,4.951,88.353,0.346c-18.497,10.337-75.837,39.417-124.747,32.605c0,0-27.955,1.968-44.297-24.949
				c-4.518-7.439-12.2-14.129-40.482-3.938c-26.479,9.54-40.094,16.797-57.408,27.49c-17.312,10.692-24.439,15.656-24.439,15.656
				l-3.287-2.792C1810.525,181.995,1849.349,187.445,1886.873,192.766z"/>
		</g>
		<g opacity="0.2">
			<path fill="#F67D7D" d="M1924.695-25.383c-56.504,29.784-109.928,57.958-184.279,122.495l-2.699-2.496
				c32.718-28.639,58.684-46.714,85.162-66.062c21.949-16.039,24.82-24.319,41.624-42.648c16.802-18.33,17.82-18.84,64.663-36.152
				c35.12-12.979,70.099-22.095,85.406-25.844C1982.068-55.634,1952.938-40.267,1924.695-25.383z"/>
			<path fill="#F67D7D" d="M1926.711-21.563c29.018-15.295,58.971-31.085,92.597-52.403c-24.912,30.218-50.332,49.567-79.892,73.686
				c-62.247,50.79-66.951,10.392-108.646,38.761c-37.041,25.204-50.024,34.751-84.393,64.155l-2.771-2.567
				C1817.4,36.075,1870.523,8.052,1926.711-21.563z"/>
		</g>
		<g opacity="0.2">
			<path fill="#F67D7D" d="M1973.383-235.427c-0.646,9.413-2.959,29.962-11.203,61.508c-11.713,44.806-22.405,64.154-49.391,94.705
				c-26.984,30.55-36.998,23.982-54.037,41.185c-12.986,13.11-37.923,42.19-63.486,65.459
				c-14.895,13.557-28.451,26.922-48.722,44.327l-2.246-2.249C1822.186-0.667,1895.871-67.499,1973.383-235.427z"/>
			<path fill="#F67D7D" d="M1741.242,66.447l-2.584-2.587c63.29-56.479,84.962-81.588,97.945-97.245
				c32.39-39.059,18.343-60.577,19.667-68.356c3.722-21.862,22.659-40.355,46.079-66.324c19.248-21.341,54.984-57.104,67.114-69.178
				C1892.266-69.996,1818.852-3.476,1741.242,66.447z"/>
		</g>
		<g>
			<path fill="#3B3E98" d="M1813.822-117.02c4.13,20.005,12.666,61.466-76.797,149.915l-2.496-2.75
				c70.394-73.445,71.031-96.231,74.21-107.815c2.894-10.547-8.143-25.956-15.9-32.726c-23.462-20.479-21.856-42.265-20.112-57.791
				c5.407-48.199,26.953-84.182,36.211-97.729C1798.959-210.897,1803.22-168.378,1813.822-117.02z"/>
			<path fill="#3B3E98" d="M1818.055-117.894c-10.545-51.059-14.748-93.281-4.719-148.022
				c1.754,22.596,16.836,63.023,24.052,102.823c7.892,43.534-4.376,50.827-17.187,92.799c-7.385,24.189-27.24,61.866-78.283,108.576
				l-1.987-2.188C1831.203-54.092,1822.338-97.132,1818.055-117.894z"/>
		</g>
		<g opacity="0.3">
			<path fill="#F67D7D" d="M1899.9,301.571c-11.225-17.065-34.505-52.419-160.309-51.702l0.18,3.709
				c101.71,2.159,118.273,17.821,128.711,23.763c9.504,5.412,12.597,24.111,11.898,34.385c-2.11,31.07,14.43,45.34,26.643,55.085
				c37.904,30.259,78.584,40.468,94.709,43.5C1955.773,378.462,1928.72,345.384,1899.9,301.571z"/>
			<path fill="#F67D7D" d="M1903.512,299.196c28.648,43.56,55.532,76.388,101.33,108.004
				c-14.736-17.218-32.658-56.469-55.699-89.713c-25.203-36.364-39.034-32.847-77.771-53.467
				c-22.326-11.883-63.009-24.484-132.13-21.42l0.142,2.951C1867.694,244.785,1891.86,281.487,1903.512,299.196z"/>
		</g>
		<g opacity="0.3">
			<path fill="#F67D7D" d="M1837.431,127.819c-31.002,3.205-60.325,6.262-100.431,47.042l-3.743-1c0,0,27.46-32.483,70.477-47.133
				c32.89-11.2,48.626-5.544,98.638-15.256C1877.723,123.645,1857.325,125.761,1837.431,127.819z"/>
			<path fill="#F67D7D" d="M1837.875,132.116c20.67-2.136,41.873-4.335,67.696-17.395c-6.218,8.439-22.202,26.678-49.957,36.321
				c-36.89,12.814-44.426-11.253-61.868-5.427c-21.876,7.312-35.199,20.772-47.097,31.823l-4.841-1.293
				C1779.955,138.119,1808.123,135.193,1837.875,132.116z"/>
		</g>
	</g>
	<g id="LEAVES-Right_7_">
		<g>
			<path fill="#F67D7D" d="M1913.142-302.409c-7.121-0.562-14.103-1.113-20.81-1.554c-7.504-0.496-14.636-1.508-22.189-2.578
				c-38.493-5.457-78.29-11.088-167.072,49.949l-2.579-2.192c0,0,46.712-37.294,105.521-52.569
				c46.557-12.093,49.011-22.021,92.544-14.131c38.287,6.939,77.156,21.162,100.172,23.797
				C1974.158-297.609,1942.402-300.104,1913.142-302.409z"/>
			<path fill="#F67D7D" d="M1869.534-302.264c7.302,1.035,14.848,2.105,22.514,2.611c6.689,0.441,13.65,0.989,20.754,1.551
				c30.157,2.376,62.912,4.951,88.353,0.346c-18.496,10.338-75.837,39.418-124.747,32.606c0,0-27.955,1.968-44.297-24.948
				c-4.518-7.441-12.2-14.131-40.482-3.939c-26.479,9.541-40.093,16.797-57.407,27.49c-17.312,10.693-24.439,15.656-24.439,15.656
				l-3.288-2.792C1793.187-313.033,1832.01-307.583,1869.534-302.264z"/>
		</g>
		<g opacity="0.2">
			<path fill="#3B3E98" d="M1907.356-482.413c-56.504,29.785-109.927,57.958-184.279,122.496l-2.698-2.497
				c32.717-28.638,58.683-46.713,85.162-66.061c21.948-16.039,24.818-24.319,41.623-42.649c16.802-18.33,17.82-18.839,64.664-36.152
				c35.119-12.979,70.098-22.095,85.405-25.844C1964.729-512.664,1935.599-497.296,1907.356-482.413z"/>
			<path fill="#3B3E98" d="M1909.371-478.593c29.019-15.294,58.973-31.085,92.598-52.403
				c-24.912,30.218-50.332,49.567-79.892,73.686c-62.247,50.79-66.951,10.391-108.646,38.761
				c-37.041,25.204-50.025,34.75-84.394,64.155l-2.771-2.567C1800.062-420.954,1853.186-448.977,1909.371-478.593z"/>
		</g>
		<g opacity="0.2">
			<path fill="#3B3E98" d="M1956.044-692.456c-0.646,9.412-2.958,29.962-11.203,61.508c-11.713,44.806-22.405,64.154-49.391,94.704
				c-26.984,30.551-36.998,23.983-54.036,41.185c-12.987,13.11-37.924,42.19-63.487,65.458
				c-14.895,13.557-28.45,26.922-48.722,44.327l-2.246-2.248C1804.847-457.696,1878.533-524.528,1956.044-692.456z"/>
			<path fill="#3B3E98" d="M1723.903-390.582l-2.584-2.586c63.29-56.479,84.962-81.588,97.945-97.247
				c32.39-39.058,18.343-60.577,19.667-68.355c3.722-21.862,22.659-40.355,46.079-66.324c19.248-21.341,54.985-57.104,67.114-69.178
				C1874.927-527.025,1801.512-460.505,1723.903-390.582z"/>
		</g>
		<g>
			<path fill="#F67D7D" d="M1796.483-574.049c4.13,20.005,12.667,61.466-76.797,149.915l-2.495-2.75
				c70.393-73.446,71.03-96.232,74.209-107.815c2.894-10.547-8.143-25.956-15.9-32.726c-23.462-20.479-21.855-42.265-20.111-57.791
				c5.406-48.199,26.952-84.182,36.21-97.729C1781.62-667.927,1785.881-625.407,1796.483-574.049z"/>
			<path fill="#F67D7D" d="M1800.716-574.923c-10.544-51.059-14.747-93.281-4.719-148.022
				c1.754,22.596,16.837,63.023,24.052,102.823c7.892,43.534-4.376,50.827-17.186,92.798
				c-7.385,24.189-27.241,61.867-78.284,108.577l-1.987-2.188C1813.864-511.122,1805-554.162,1800.716-574.923z"/>
		</g>
		<g opacity="0.2">
			<path fill="#3B3E98" d="M1820.092-367.21c-31.002,3.205-60.324,6.262-100.431,47.042l-3.743-1c0,0,27.46-32.483,70.477-47.133
				c32.89-11.2,48.626-5.544,98.638-15.256C1860.384-371.385,1839.986-369.269,1820.092-367.21z"/>
			<path fill="#3B3E98" d="M1820.536-362.914c20.67-2.135,41.873-4.334,67.696-17.395c-6.217,8.44-22.202,26.679-49.957,36.322
				c-36.89,12.814-44.426-11.252-61.868-5.426c-21.876,7.312-35.198,20.771-47.097,31.822l-4.841-1.293
				C1762.617-356.91,1790.784-359.836,1820.536-362.914z"/>
		</g>
	</g>
	<g id="LEAVES-Right_8_">
		<g opacity="0.2">
			<path fill="#3B3E98" d="M1917.613,541.777c-56.504,29.784-109.927,57.958-184.279,122.495l-2.698-2.497
				c32.717-28.638,58.683-46.713,85.162-66.061c21.948-16.039,24.818-24.318,41.623-42.648c16.802-18.33,17.82-18.84,64.664-36.152
				c35.119-12.979,70.098-22.095,85.405-25.844C1974.986,511.525,1945.855,526.893,1917.613,541.777z"/>
			<path fill="#3B3E98" d="M1919.628,545.597c29.019-15.294,58.973-31.085,92.598-52.403
				c-24.912,30.219-50.332,49.566-79.892,73.686c-62.247,50.79-66.951,10.391-108.646,38.762
				c-37.041,25.203-50.025,34.75-84.394,64.154l-2.771-2.567C1810.318,603.235,1863.442,575.213,1919.628,545.597z"/>
		</g>
		<g>
			<path fill="#F67D7D" d="M1840.74,438.141c4.13,20.004,12.667,61.465-76.797,149.914l-2.495-2.75
				c70.393-73.445,71.03-96.232,74.209-107.814c2.894-10.547-8.143-25.957-15.9-32.727c-23.462-20.479-21.855-42.265-20.111-57.791
				c5.406-48.198,26.952-84.182,36.21-97.729C1825.877,344.263,1830.138,386.782,1840.74,438.141z"/>
			<path fill="#F67D7D" d="M1844.973,437.267c-10.544-51.06-14.747-93.281-4.719-148.022c1.754,22.597,16.837,63.023,24.052,102.823
				c7.892,43.534-4.376,50.827-17.186,92.798c-7.385,24.189-27.241,61.867-78.284,108.577l-1.987-2.188
				C1858.121,501.068,1849.257,458.027,1844.973,437.267z"/>
		</g>
	</g>
	<g>
		<path fill="#F67D7D" d="M1828.853,863.616c-11.052-29.142-21.529-56.699-71.234-84.999l0.006-3.874
			c0,0,38.441,18.205,63.637,56.023c19.265,28.915,17.836,45.575,40.053,91.422C1843.226,901.488,1835.946,882.316,1828.853,863.616
			z"/>
		<path fill="#F67D7D" d="M1824.814,865.147c7.366,19.431,14.933,39.359,34.181,60.967c-9.753-3.843-31.481-14.613-47.924-38.965
			c-21.85-32.368-0.521-45.826-10.629-61.189c-12.68-19.268-29.106-28.691-42.84-37.355l0.008-5.011
			C1804.151,810.707,1814.207,837.181,1824.814,865.147z"/>
	</g>
	<g opacity="0.2">
		<path fill="#3B3E98" d="M1946.272,689.607c-7.121-0.562-14.103-1.113-20.81-1.554c-7.504-0.496-14.636-1.508-22.189-2.578
			c-38.493-5.457-78.29-11.088-167.072,49.949l-2.579-2.192c0,0,46.712-37.294,105.521-52.569
			c46.557-12.093,49.011-22.021,92.544-14.131c38.287,6.939,77.156,21.162,100.172,23.797
			C2007.289,694.407,1975.533,691.913,1946.272,689.607z"/>
		<path fill="#3B3E98" d="M1902.665,689.753c7.302,1.035,14.848,2.105,22.514,2.611c6.689,0.441,13.65,0.989,20.754,1.551
			c30.157,2.376,62.912,4.951,88.353,0.346c-18.496,10.338-75.837,39.418-124.747,32.606c0,0-27.955,1.968-44.297-24.948
			c-4.518-7.441-12.2-14.131-40.482-3.939c-26.479,9.541-40.093,16.797-57.407,27.49c-17.312,10.693-24.439,15.656-24.439,15.656
			l-3.288-2.792C1826.317,678.983,1865.141,684.434,1902.665,689.753z"/>
	</g>
	<g>
		<path fill="#F67D7D" d="M1912.898,816.56c-11.225-17.066-34.506-52.42-160.309-51.703l0.179,3.709
			c101.71,2.159,118.273,17.82,128.712,23.764c9.504,5.412,12.596,24.111,11.897,34.385c-2.11,31.07,14.431,45.338,26.643,55.084
			c37.905,30.258,78.584,40.467,94.709,43.5C1968.771,893.45,1941.717,860.372,1912.898,816.56z"/>
		<path fill="#F67D7D" d="M1916.509,814.183c28.648,43.561,55.532,76.389,101.331,108.006
			c-14.737-17.219-32.659-56.471-55.699-89.715c-25.204-36.363-39.035-32.846-77.771-53.467
			c-22.326-11.882-63.009-24.482-132.13-21.419l0.142,2.952C1880.691,759.772,1904.857,796.476,1916.509,814.183z"/>
	</g>
</svg>
