<?xml version="1.0" encoding="utf-8"?>
<!-- Generator: Adobe Illustrator 16.0.0, SVG Export Plug-In . SVG Version: 6.00 Build 0)  -->
<!DOCTYPE svg PUBLIC "-//W3C//DTD SVG 1.1//EN" "http://www.w3.org/Graphics/SVG/1.1/DTD/svg11.dtd">
<svg version="1.1" xmlns="http://www.w3.org/2000/svg" xmlns:xlink="http://www.w3.org/1999/xlink" x="0px" y="0px" width="282px"
	 height="1564px" viewBox="1288.5 -601.5 282 1564" enable-background="new 1288.5 -601.5 282 1564" xml:space="preserve">
<g id="Layer_4">
</g>
<g id="egg">
</g>
<g id="Layer_1">
</g>
<g id="Layer_3">
	<path opacity="0.2" fill="none" d="M1559.243,231.904c-8.416,5.932-20.985,20.119-19.197,30.908
		c1.54,9.282,0.822,25.249,30.454,70.351V222.115C1567.425,225.462,1563.726,228.744,1559.243,231.904z"/>
	<path opacity="0.2" fill="none" d="M1522.097,922.496c-14.107-19.679-25.033-14.775-46.852-49.207
		c-21.818-34.43-29.318-55.224-33.804-101.317c-3.157-32.454-2.192-53.11-1.344-62.507
		c31.855,113.444,68.663,186.122,108.203,245.035h5.223c-39.956-59.062-77.146-131.818-109.27-246.208
		c10.069,13.838,39.706,54.799,55.341,78.913c19.021,29.343,34.799,50.596,35.02,72.771c0.078,7.89-17.193,26.919,8.618,70.604
		c3.674,6.219,8.252,13.8,15.013,23.919h12.255V839.987c-28.984-32.561-42.072-59.171-47.755-77.786
		c-12.81-41.971-25.077-49.264-17.186-92.798c7.215-39.8,22.298-80.227,24.052-102.823c10.028,54.741,5.825,96.963-4.719,148.022
		c-3.689,17.877-10.768,52.276,45.607,119.066v-6.729c-51.453-62.543-44.854-94.615-41.375-111.463
		c10.603-51.358,14.863-93.878,4.885-148.896c9.258,13.547,30.804,49.53,36.21,97.729c0.096,0.85,0.189,1.722,0.28,2.607V547.953
		c-89.743,3.196-105.282,17.712-115.241,23.383c-9.504,5.412-12.596,24.111-11.897,34.385c2.11,31.07-14.431,45.338-26.643,55.084
		c-37.905,30.258-78.584,40.467-94.709,43.5c45.959-31.848,73.013-64.926,101.831-108.738c10.806-16.43,32.802-49.8,146.659-51.63
		v-4.316c-116.213,1.866-139.051,36.521-150.27,53.569c-28.648,43.561-55.532,76.389-101.331,108.006
		c14.737-17.219,32.659-56.471,55.699-89.715c25.204-36.363,39.035-32.846,77.771-53.467c20.773-11.056,57.452-22.726,118.13-21.829
		v-31.02c-0.368-0.229-0.734-0.455-1.112-0.688c-17.314-10.693-30.929-17.949-57.407-27.49
		c-28.282-10.191-35.965-3.502-40.482,3.939c-16.342,26.916-44.297,24.948-44.297,24.948
		c-48.91,6.812-106.251-22.269-124.747-32.606c25.44,4.605,58.195,2.03,88.353-0.346c7.104-0.562,14.064-1.109,20.754-1.551
		c7.666-0.506,15.212-1.576,22.514-2.611c33.448-4.741,67.93-9.585,136.426,31.452v-5.05c-68.31-40.404-103.18-35.479-137.034-30.68
		c-7.554,1.07-14.686,2.082-22.189,2.578c-6.707,0.44-13.688,0.992-20.81,1.554c-29.261,2.306-61.017,4.8-85.586,0.722
		c23.016-2.635,61.885-16.857,100.172-23.797c43.533-7.891,45.987,2.038,92.544,14.131c28.434,7.386,54.038,19.918,72.903,30.894
		v-40.675c-10.989-10.261-23.713-21.731-43.299-28.277c-17.442-5.826-24.979,18.24-61.868,5.426
		c-27.755-9.644-43.74-27.882-49.957-36.322c25.823,13.061,47.026,15.26,67.696,17.395c27.46,2.841,53.576,5.576,87.428,35.874
		v-5.759c-33.433-28.835-59.554-31.575-86.983-34.411c-19.895-2.059-40.292-4.175-64.94-16.347
		c50.012,9.712,65.748,4.056,98.638,15.256c22.663,7.718,41,20.383,53.286,30.643V384.62c-7.774-7.202-14.88-13.926-22.318-20.696
		c-25.563-23.27-50.5-52.349-63.487-65.459c-17.038-17.202-27.052-10.635-54.036-41.186c-26.985-30.549-37.678-49.897-49.391-94.704
		c-8.245-31.546-10.557-52.096-11.203-61.508c67.948,147.212,132.958,216.731,200.436,278.919v-5.883
		c-66.105-61.221-129.902-130.536-196.517-274.852c12.129,12.074,47.866,47.837,67.114,69.178
		c23.42,25.969,42.357,44.461,46.079,66.324c1.324,7.777-12.723,29.297,19.667,68.355c10.291,12.412,26.047,30.765,63.656,65.969
		v-13.494c-27.782-37.44-38.738-66.747-42.617-86.62c-8.404-43.069-19.853-51.591-7.506-94.077
		c11.289-38.841,30.468-77.493,34.547-99.787c4.319,55.484-4.225,97.046-19.987,146.743c-5.608,17.688-16.47,51.999,35.563,126.78
		v-7.636c-46.775-69.391-36.713-101.225-31.443-117.839c15.852-49.988,24.482-91.839,20.242-147.594
		c2.854,5.274,7.03,13.709,11.201,24.645V-10.835c-0.368-0.228-0.734-0.455-1.112-0.688c-17.314-10.693-30.929-17.949-57.407-27.49
		c-28.282-10.191-35.965-3.502-40.482,3.939c-16.342,26.916-44.297,24.948-44.297,24.948
		c-48.91,6.812-106.251-22.269-124.747-32.606c25.44,4.605,58.195,2.03,88.353-0.346c7.104-0.562,14.064-1.109,20.754-1.551
		c7.666-0.506,15.212-1.576,22.514-2.611c33.448-4.742,67.93-9.585,136.426,31.453v-5.05c-68.31-40.405-103.18-35.479-137.034-30.68
		c-7.554,1.07-14.686,2.082-22.189,2.578c-6.707,0.44-13.688,0.992-20.81,1.554c-29.261,2.306-61.017,4.8-85.586,0.722
		c23.016-2.635,61.885-16.857,100.172-23.797c43.533-7.891,45.987,2.038,92.544,14.131c28.434,7.386,54.038,19.918,72.903,30.894
		v-40.675c-10.989-10.262-23.713-21.732-43.299-28.278c-17.442-5.826-24.979,18.24-61.868,5.426
		c-27.755-9.644-43.74-27.882-49.957-36.322c25.823,13.061,47.026,15.26,67.696,17.395c27.46,2.841,53.576,5.576,87.428,35.874
		v-5.759c-33.433-28.834-59.554-31.575-86.983-34.411c-19.895-2.059-40.292-4.175-64.94-16.347
		c50.012,9.712,65.748,4.056,98.638,15.256c22.663,7.718,41,20.383,53.286,30.643v-20.21c-31.38-26.72-44.785-36.5-80.323-60.681
		c-41.694-28.37-46.398,12.029-108.646-38.761c-29.56-24.119-54.979-43.467-79.892-73.686
		c33.625,21.318,63.579,37.109,92.598,52.403c54.435,28.692,105.995,55.891,176.263,115.751v-5.658
		c-69.187-58.503-120.321-85.487-174.248-113.913c-28.242-14.884-57.373-30.251-89.877-50.707
		c15.308,3.75,50.286,12.865,85.405,25.844c46.844,17.313,47.862,17.822,64.664,36.152c16.805,18.33,19.675,26.61,41.623,42.649
		c22.952,16.77,45.521,32.589,72.433,55.155v-15.328c-18.15-15.784-30.901-28.286-44.818-40.953
		c-25.563-23.269-50.5-52.348-63.487-65.458c-17.038-17.202-27.052-10.634-54.036-41.185c-26.985-30.55-37.678-49.898-49.391-94.704
		c-8.245-31.546-10.557-52.096-11.203-61.508c75.468,163.502,147.311,231.167,222.936,299.391v-5.819
		c-74.227-67.051-144.877-134.768-219.017-295.388c12.129,12.074,47.866,47.837,67.114,69.178
		c23.42,25.968,42.357,44.461,46.079,66.324c1.324,7.778-12.723,29.297,19.667,68.355c12.142,14.643,31.886,37.554,86.156,86.655
		v-22.991c-44.756-43.013-62.797-77.782-69.755-100.573c-12.81-41.972-25.077-49.264-17.186-92.798
		c7.215-39.8,22.298-80.227,24.052-102.823c10.028,54.741,5.825,96.963-4.719,148.022c-4.111,19.926-12.426,60.383,67.607,143.341
		v-6.242c-75.132-79.095-67.285-117.283-63.375-136.226c10.603-51.358,14.863-93.877,4.885-148.896
		c9.258,13.547,30.804,49.53,36.21,97.729c1.744,15.526,3.351,37.312-20.111,57.791c-7.758,6.77-18.794,22.179-15.9,32.726
		c2.919,10.635,3.703,30.72,58.292,90.781v-324.396c-40.152-26.169-45.567,12.452-106.968-37.647
		c-21.3-17.38-40.45-32.284-58.811-50.561H1288.5v109.507c13.61-6.29,28.848-12.147,45.001-16.343
		c46.557-12.093,49.011-22.021,92.544-14.131c38.287,6.939,77.156,21.162,100.172,23.797c-24.569,4.078-56.325,1.584-85.586-0.722
		c-7.121-0.562-14.103-1.113-20.81-1.554c-7.504-0.496-14.636-1.508-22.189-2.578c-28.909-4.098-58.555-8.292-109.132,15.727v4.836
		c50.627-24.454,79.954-20.335,108.523-16.285c7.302,1.035,14.848,2.105,22.514,2.611c6.689,0.441,13.65,0.989,20.754,1.551
		c30.157,2.376,62.912,4.951,88.353,0.346c-18.496,10.338-75.837,39.418-124.747,32.606c0,0-27.955,1.968-44.297-24.948
		c-4.518-7.441-12.2-14.131-40.482-3.939c-12.488,4.5-22.114,8.492-30.617,12.576v461.605c44.652,2.349,73.295,12.069,90.735,21.351
		c38.736,20.621,52.567,17.104,77.772,53.467c23.04,33.244,40.962,72.496,55.699,89.715c-45.8-31.618-72.683-64.446-101.331-108.006
		c-10.274-15.615-30.299-45.997-122.876-52.433v4.321c90.165,6.304,109.39,35.473,119.265,50.488
		c28.819,43.813,55.873,76.891,101.832,108.739c-16.125-3.033-56.805-13.243-94.709-43.5c-12.212-9.746-28.753-24.014-26.644-55.084
		c0.698-10.273-2.393-28.972-11.896-34.384c-8.847-5.037-22.102-17.053-87.848-21.916v388.44c2.855-3.176,4.701-5.749,6.426-7.771
		c7.094-8.323,3.638-26.959-0.516-36.381c-12.558-28.498-1.86-47.545,6.306-60.864c25.344-41.353,60.12-64.797,74.251-73.137
		c-32.378,45.589-46.558,85.9-58.745,136.905c-2.533,10.604-6.528,27.275-27.722,46.925v5.808
		c24.721-21.626,29.16-40.159,31.926-51.728c12.113-50.711,26.219-90.728,58.523-136.044c-7.998,21.206-11.49,64.214-21.842,103.315
		c-11.322,42.771-25.525,44.17-54.931,76.742c-3.697,4.095-8.204,8.519-13.677,13.147v160.851
		c9.773-9.064,18.803-12.479,54.614-25.715c35.119-12.979,70.098-22.095,85.405-25.844c-32.504,20.455-61.635,35.822-89.877,50.707
		c-16.775,8.843-33.282,17.55-50.143,27.103v4.967c17.563-10.012,34.713-19.055,52.157-28.25
		c29.019-15.294,58.973-31.085,92.598-52.403c-24.912,30.219-50.332,49.566-79.892,73.686
		c-33.222,27.106-50.052,28.239-64.863,27.714V797.48c7.581-14.708,15.404-25.506,38.032-39.896
		c34.13-21.706,74.061-38.059,91.85-52.103c-33.406,44.511-67.273,70.073-111.935,96.974c-4.906,2.957-11.237,6.778-17.947,13.305
		v6.238c7.521-8.21,14.753-12.572,20.18-15.841c44.92-27.061,79.043-52.783,112.686-97.444
		c-3.669,15.992-15.48,56.234-47.217,92.911c-10.222,11.816-25.134,27.779-56.096,24.44c-8.053-0.869-21.404,0.401-29.553,5.499
		v90.724c13.791-8,37.883-19.518,66.548-22.67c34.537-3.798,48.672,5.138,99.599,6.508c-26.701,6.534-47.072,4.175-66.939,1.868
		c-28.967-3.366-56.473-6.534-99.207,18.55v5.027c42.797-25.762,70.018-22.619,98.708-19.288c20.642,2.4,41.816,4.854,69.858-2.292
		c-7.9,6.89-27.462,21.226-56.648,24.618c-38.79,4.506-40.926-20.623-59.217-18.719c-22.844,2.381-38.73,12.552-52.701,20.74v17.87
		h255.16C1534.855,941.423,1527.361,929.84,1522.097,922.496z"/>
	<path opacity="0.2" fill="none" d="M1538.445-564.751c13.99,15.26,18.331,23.557,32.055,35.162V-601.5h-98.346
		c0.543,0.199,1.084,0.396,1.627,0.596C1520.625-583.592,1521.644-583.082,1538.445-564.751z"/>
	<path opacity="0.2" fill="none" d="M1570.5-518.291v-5.167c-32.348-20.999-61.854-36.562-92.247-52.583
		c-15.358-8.094-30.985-16.338-47.269-25.459h-8.792c18.75,10.669,36.571,20.069,54.046,29.279
		C1507.259-555.87,1537.353-539.993,1570.5-518.291z"/>
	<path opacity="0.2" fill="none" d="M1550.108,722.1c-7.758,6.77-18.794,22.18-15.9,32.727c2.459,8.96,3.407,24.632,36.292,65.266
		V686.555C1568.905,697.855,1563.745,710.197,1550.108,722.1z"/>
	<path opacity="0.2" fill="#3B3E98" d="M1428.52,510.569c-15.308,3.749-50.286,12.865-85.405,25.844
		c-35.812,13.235-44.841,16.65-54.614,25.715v26.251c16.86-9.553,33.367-18.26,50.143-27.103
		C1366.885,546.392,1396.016,531.024,1428.52,510.569z"/>
	<path opacity="0.2" fill="#3B3E98" d="M1353.363,586.378c29.56-24.119,54.979-43.467,79.892-73.686
		c-33.625,21.318-63.579,37.109-92.598,52.403c-17.444,9.195-34.594,18.238-52.157,28.25v20.746
		C1303.312,614.617,1320.142,613.484,1353.363,586.378z"/>
	<path fill="#3B3E98" d="M1316.222,343.111c12.188-51.005,26.367-91.316,58.745-136.905c-14.131,8.34-48.907,31.784-74.251,73.137
		c-8.166,13.319-18.863,32.366-6.306,60.864c4.153,9.422,7.609,28.058,0.516,36.381c-1.725,2.022-3.57,4.596-6.426,7.771v5.677
		C1309.693,370.387,1313.688,353.715,1316.222,343.111z"/>
	<path fill="#3B3E98" d="M1302.177,388.13c29.405-32.572,43.608-33.972,54.931-76.742c10.352-39.102,13.844-82.109,21.842-103.315
		c-32.305,45.316-46.41,85.333-58.523,136.044c-2.766,11.568-7.205,30.102-31.926,51.728v5.434
		C1293.973,396.648,1298.479,392.225,1302.177,388.13z"/>
	<path opacity="0.2" fill="#F67D7D" d="M1405.053,445.539c-38.287,6.939-77.156,21.162-100.172,23.797
		c24.569,4.078,56.325,1.584,85.586-0.722c7.121-0.562,14.103-1.113,20.81-1.554c7.504-0.496,14.636-1.508,22.189-2.578
		c33.854-4.8,68.725-9.725,137.034,30.68v-4.599c-18.865-10.976-44.47-23.508-72.903-30.894
		C1451.04,447.577,1448.586,437.648,1405.053,445.539z"/>
	<path opacity="0.2" fill="#F67D7D" d="M1434.074,468.76c-7.302,1.035-14.848,2.105-22.514,2.611
		c-6.689,0.441-13.65,0.989-20.754,1.551c-30.157,2.376-62.912,4.951-88.353,0.346c18.496,10.338,75.837,39.418,124.747,32.606
		c0,0,27.955,1.968,44.297-24.948c4.518-7.441,12.2-14.131,40.482-3.939c26.479,9.541,40.093,16.797,57.407,27.49
		c0.378,0.233,0.744,0.46,1.112,0.688v-4.953C1502.004,459.175,1467.522,464.019,1434.074,468.76z"/>
	<path fill="#3B3E98" d="M1370.064,101.067c0.646,9.412,2.958,29.962,11.203,61.508c11.713,44.806,22.405,64.155,49.391,94.704
		c26.984,30.551,36.998,23.983,54.036,41.186c12.987,13.11,37.924,42.189,63.487,65.459c7.438,6.771,14.544,13.494,22.318,20.696
		v-4.634C1503.022,317.799,1438.013,248.279,1370.064,101.067z"/>
	<path fill="#3B3E98" d="M1506.844,303.109c-32.39-39.059-18.343-60.578-19.667-68.355c-3.722-21.863-22.659-40.355-46.079-66.324
		c-19.248-21.341-54.985-57.104-67.114-69.178c66.614,144.316,130.411,213.631,196.517,274.852v-5.025
		C1532.891,333.874,1517.135,315.521,1506.844,303.109z"/>
	<path opacity="0.2" fill="#F67D7D" d="M1539.057,223.148c-5.27,16.614-15.332,48.448,31.443,117.839v-7.824
		c-29.632-45.102-28.914-61.068-30.454-70.351c-1.788-10.789,10.781-24.977,19.197-30.908c4.482-3.16,8.182-6.442,11.257-9.789
		V100.199c-4.171-10.935-8.348-19.371-11.201-24.645C1563.539,131.309,1554.908,173.161,1539.057,223.148z"/>
	<path opacity="0.2" fill="#F67D7D" d="M1534.937,221.843c15.763-49.697,24.307-91.259,19.987-146.743
		c-4.079,22.294-23.258,60.946-34.547,99.787c-12.347,42.486-0.898,51.007,7.506,94.077c3.879,19.873,14.835,49.18,42.617,86.62
		v-6.961C1518.467,273.842,1529.328,239.531,1534.937,221.843z"/>
	<path fill="#3B3E98" d="M1423.841,595.566c-28.818,43.812-55.872,76.891-101.831,108.738c16.125-3.033,56.804-13.242,94.709-43.5
		c12.212-9.746,28.753-24.014,26.643-55.084c-0.698-10.273,2.394-28.973,11.897-34.385c9.959-5.671,25.498-20.187,115.241-23.383
		v-4.017C1456.643,545.767,1434.646,579.137,1423.841,595.566z"/>
	<path fill="#3B3E98" d="M1452.37,558.014c-38.736,20.621-52.567,17.104-77.771,53.467c-23.04,33.244-40.962,72.496-55.699,89.715
		c45.799-31.617,72.683-64.445,101.331-108.006c11.219-17.049,34.057-51.703,150.27-53.569v-3.436
		C1509.822,535.288,1473.144,546.958,1452.37,558.014z"/>
	<path opacity="0.2" fill="#F67D7D" d="M1418.576,387.467c24.648,12.172,45.046,14.288,64.94,16.347
		c27.43,2.836,53.551,5.576,86.983,34.411v-4.859c-12.286-10.26-30.623-22.925-53.286-30.643
		C1484.324,391.522,1468.588,397.179,1418.576,387.467z"/>
	<path opacity="0.2" fill="#F67D7D" d="M1415.376,390.715c6.217,8.44,22.202,26.679,49.957,36.322
		c36.89,12.814,44.426-11.252,61.868-5.426c19.586,6.546,32.31,18.017,43.299,28.277v-5.905
		c-33.852-30.298-59.968-33.033-87.428-35.874C1462.402,405.975,1441.199,403.775,1415.376,390.715z"/>
	<path fill="#F67D7D" d="M1405.053-70.461c-38.287,6.939-77.156,21.162-100.172,23.797c24.569,4.078,56.325,1.584,85.586-0.722
		c7.121-0.562,14.103-1.113,20.81-1.554c7.504-0.496,14.636-1.508,22.189-2.578c33.854-4.799,68.725-9.725,137.034,30.68v-4.599
		c-18.865-10.976-44.47-23.508-72.903-30.894C1451.04-68.423,1448.586-78.352,1405.053-70.461z"/>
	<path fill="#F67D7D" d="M1434.074-47.24c-7.302,1.035-14.848,2.105-22.514,2.611c-6.689,0.441-13.65,0.989-20.754,1.551
		c-30.157,2.376-62.912,4.951-88.353,0.346c18.496,10.338,75.837,39.418,124.747,32.606c0,0,27.955,1.968,44.297-24.948
		c4.518-7.441,12.2-14.131,40.482-3.939c26.479,9.541,40.093,16.797,57.407,27.49c0.378,0.233,0.744,0.46,1.112,0.688v-4.952
		C1502.004-56.825,1467.522-51.982,1434.074-47.24z"/>
	<path opacity="0.2" fill="#3B3E98" d="M1456.444-216.1c-16.802-18.33-17.82-18.839-64.664-36.152
		c-35.119-12.979-70.098-22.095-85.405-25.844c32.504,20.456,61.635,35.823,89.877,50.707
		c53.927,28.426,105.062,55.41,174.248,113.913v-4.82c-26.911-22.566-49.48-38.385-72.433-55.155
		C1476.119-189.49,1473.249-197.77,1456.444-216.1z"/>
	<path opacity="0.2" fill="#3B3E98" d="M1301.64-275.973c24.912,30.218,50.332,49.567,79.892,73.686
		c62.247,50.79,66.951,10.391,108.646,38.761c35.538,24.181,48.943,33.961,80.323,60.681v-4.974
		c-70.268-59.86-121.828-87.059-176.263-115.751C1365.219-238.864,1335.265-254.655,1301.64-275.973z"/>
	<path opacity="0.2" fill="#3B3E98" d="M1347.564-437.433c0.646,9.412,2.958,29.962,11.203,61.508
		c11.713,44.806,22.405,64.154,49.391,94.704c26.984,30.551,36.998,23.983,54.036,41.185c12.987,13.11,37.924,42.19,63.487,65.458
		c13.917,12.667,26.668,25.169,44.818,40.953v-4.418C1494.875-206.266,1423.032-273.931,1347.564-437.433z"/>
	<path opacity="0.2" fill="#3B3E98" d="M1484.344-235.391c-32.39-39.058-18.343-60.577-19.667-68.355
		c-3.722-21.862-22.659-40.355-46.079-66.324c-19.248-21.341-54.985-57.104-67.114-69.178
		c74.14,160.62,144.79,228.337,219.017,295.388v-4.875C1516.229-197.837,1496.485-220.748,1484.344-235.391z"/>
	<path fill="#F67D7D" d="M1528.108-312.402c23.462-20.479,21.855-42.265,20.111-57.791c-5.406-48.199-26.952-84.182-36.21-97.729
		c9.979,55.018,5.718,97.538-4.885,148.896c-3.91,18.943-11.757,57.131,63.375,136.226v-6.096
		c-54.589-60.061-55.373-80.146-58.292-90.781C1509.314-290.223,1520.351-305.632,1528.108-312.402z"/>
	<path fill="#F67D7D" d="M1502.893-319.899c10.544-51.059,14.747-93.281,4.719-148.022c-1.754,22.596-16.837,63.023-24.052,102.823
		c-7.892,43.534,4.376,50.827,17.186,92.798c6.958,22.792,24.999,57.561,69.755,100.573v-4.831
		C1490.467-259.516,1498.781-299.973,1502.893-319.899z"/>
	<path opacity="0.2" fill="#3B3E98" d="M1388.244,52.219c-2.109,31.071,14.432,45.338,26.644,55.084
		c37.904,30.257,78.584,40.467,94.709,43.5c-45.959-31.848-73.013-64.926-101.832-108.739c-9.875-15.015-29.1-44.184-119.265-50.488
		v4.343c65.746,4.863,79.001,16.878,87.848,21.916C1385.852,23.247,1388.942,41.945,1388.244,52.219z"/>
	<path opacity="0.2" fill="#3B3E98" d="M1411.376,39.688c28.648,43.56,55.531,76.388,101.331,108.006
		c-14.737-17.219-32.659-56.471-55.699-89.715c-25.205-36.364-39.036-32.846-77.772-53.467
		c-17.44-9.282-46.083-19.002-90.735-21.351v4.094C1381.077-6.309,1401.102,24.074,1411.376,39.688z"/>
	<path opacity="0.2" fill="#3B3E98" d="M1418.576-128.533c24.648,12.172,45.046,14.288,64.94,16.347
		c27.43,2.836,53.551,5.577,86.983,34.411v-4.859c-12.286-10.26-30.623-22.925-53.286-30.643
		C1484.324-124.478,1468.588-118.821,1418.576-128.533z"/>
	<path opacity="0.2" fill="#3B3E98" d="M1415.376-125.285c6.217,8.44,22.202,26.679,49.957,36.322
		c36.89,12.814,44.426-11.252,61.868-5.426c19.586,6.546,32.31,18.016,43.299,28.278v-5.906
		c-33.852-30.298-59.968-33.033-87.428-35.874C1462.402-110.025,1441.199-112.225,1415.376-125.285z"/>
	<path fill="#F67D7D" d="M1534.01,566.58c9.979,55.019,5.718,97.538-4.885,148.896c-3.479,16.848-10.078,48.92,41.375,111.463
		v-6.848c-32.885-40.634-33.833-56.306-36.292-65.266c-2.894-10.547,8.143-25.957,15.9-32.727
		c13.637-11.902,18.797-24.244,20.392-35.545v-19.639c-0.091-0.886-0.185-1.758-0.28-2.607
		C1564.813,616.11,1543.268,580.127,1534.01,566.58z"/>
	<path fill="#F67D7D" d="M1524.893,714.603c10.544-51.06,14.747-93.281,4.719-148.022c-1.754,22.597-16.837,63.023-24.052,102.823
		c-7.892,43.534,4.376,50.827,17.186,92.798c5.683,18.615,18.771,45.226,47.755,77.786v-6.318
		C1514.125,766.879,1521.203,732.479,1524.893,714.603z"/>
	<path opacity="0.2" fill="#F67D7D" d="M1570.5-523.458v-6.132c-13.724-11.605-18.064-19.902-32.055-35.162
		c-16.802-18.331-17.82-18.84-64.664-36.153c-0.543-0.2-1.084-0.397-1.627-0.596h-41.17c16.283,9.121,31.91,17.365,47.269,25.459
		C1508.646-560.02,1538.152-544.456,1570.5-523.458z"/>
	<path opacity="0.2" fill="#F67D7D" d="M1463.532-550.939c61.4,50.099,66.815,11.478,106.968,37.647v-4.999
		c-33.147-21.702-63.241-37.579-94.262-53.93c-17.475-9.21-35.296-18.61-54.046-29.279h-17.471
		C1423.082-583.223,1442.232-568.319,1463.532-550.939z"/>
	<path opacity="0.2" fill="#3B3E98" d="M1318.053,826.064c30.962,3.339,45.874-12.624,56.096-24.44
		c31.736-36.677,43.548-76.919,47.217-92.911c-33.643,44.661-67.766,70.384-112.686,97.444c-5.427,3.269-12.658,7.631-20.18,15.841
		v9.565C1296.648,826.466,1310,825.195,1318.053,826.064z"/>
	<path opacity="0.2" fill="#3B3E98" d="M1418.382,705.481c-17.789,14.044-57.72,30.396-91.85,52.103
		c-22.628,14.391-30.451,25.188-38.032,39.896v18.279c6.71-6.526,13.041-10.348,17.947-13.305
		C1351.108,775.555,1384.976,749.992,1418.382,705.481z"/>
	<path fill="#3B3E98" d="M1397.632-503.524c7.554,1.07,14.686,2.082,22.189,2.578c6.707,0.44,13.688,0.992,20.81,1.554
		c29.261,2.306,61.017,4.8,85.586,0.722c-23.016-2.635-61.885-16.857-100.172-23.797c-43.533-7.891-45.987,2.038-92.544,14.131
		c-16.153,4.196-31.391,10.054-45.001,16.343v4.196C1339.077-511.816,1368.723-507.622,1397.632-503.524z"/>
	<path fill="#3B3E98" d="M1359.6-487.081c16.342,26.916,44.297,24.948,44.297,24.948c48.91,6.812,106.251-22.269,124.747-32.606
		c-25.44,4.605-58.195,2.03-88.353-0.346c-7.104-0.562-14.064-1.109-20.754-1.551c-7.666-0.506-15.212-1.576-22.514-2.611
		c-28.569-4.05-57.896-8.168-108.523,16.285v4.517c8.503-4.084,18.129-8.076,30.617-12.576
		C1347.399-501.211,1355.082-494.522,1359.6-487.081z"/>
	<path opacity="0.2" fill="#3B3E98" d="M1441.441,771.972c4.485,46.094,11.985,66.888,33.804,101.317
		c21.818,34.432,32.744,29.528,46.852,49.207c5.265,7.344,12.759,18.927,21.563,32.004h4.641
		c-39.54-58.913-76.348-131.591-108.203-245.035C1439.249,718.861,1438.284,739.518,1441.441,771.972z"/>
	<path opacity="0.2" fill="#3B3E98" d="M1534.614,859.977c-0.221-22.176-15.998-43.429-35.02-72.771
		c-15.635-24.114-45.271-65.075-55.341-78.913c32.123,114.39,69.313,187.146,109.27,246.208h4.722
		c-6.761-10.119-11.339-17.7-15.013-23.919C1517.421,886.896,1534.692,867.866,1534.614,859.977z"/>
	<path fill="#F67D7D" d="M1387.707,907.993c19.867,2.307,40.238,4.666,66.939-1.868c-50.927-1.37-65.062-10.306-99.599-6.508
		c-28.665,3.152-52.757,14.67-66.548,22.67v4.256C1331.234,901.459,1358.74,904.627,1387.707,907.993z"/>
	<path fill="#F67D7D" d="M1400.418,934.608c29.187-3.393,48.748-17.729,56.648-24.618c-28.042,7.146-49.217,4.692-69.858,2.292
		c-28.69-3.331-55.911-6.474-98.708,19.288v5.06c13.971-8.188,29.857-18.359,52.701-20.74
		C1359.492,913.985,1361.628,939.114,1400.418,934.608z"/>
</g>
</svg>
